<?xml version="1.0" encoding="us-ascii" standalone="no"?><svg xmlns="http://www.w3.org/2000/svg" xmlns:xlink="http://www.w3.org/1999/xlink" contentStyleType="text/css" height="2151px" preserveAspectRatio="none" style="width:2929px;height:2151px;background:#FFFFFF;" version="1.1" viewBox="0 0 2929 2151" width="2929px" zoomAndPan="magnify"><defs/><g><rect fill="none" height="92.0547" style="stroke:#808080;stroke-width:1.5;" width="753.5" x="474" y="190.6641"/><rect fill="none" height="92.0547" style="stroke:#808080;stroke-width:1.5;" width="909.5" x="474" y="296.7188"/><rect fill="none" height="213.9453" style="stroke:#808080;stroke-width:1.5;" width="963.5" x="464" y="462.4766"/><rect fill="none" height="181.5938" style="stroke:#808080;stroke-width:1.5;" width="943.5" x="474" y="487.8281"/><rect fill="none" height="399.7266" style="stroke:#808080;stroke-width:1.5;" width="1181.5" x="464" y="720.7734"/><rect fill="none" height="167.5938" style="stroke:#808080;stroke-width:1.5;" width="731.5" x="474" y="837.1797"/><rect fill="none" height="308.3516" style="stroke:#808080;stroke-width:1.5;" width="1469" x="834" y="1297.2578"/><rect fill="none" height="184.9453" style="stroke:#808080;stroke-width:1.5;" width="1449" x="844" y="1413.6641"/><rect fill="none" height="157.5938" style="stroke:#808080;stroke-width:1.5;" width="1952" x="834" y="1619.6094"/><rect fill="none" height="125.2422" style="stroke:#808080;stroke-width:1.5;" width="1932" x="844" y="1644.9609"/><rect fill="none" height="231.2969" style="stroke:#808080;stroke-width:1.5;" width="2459.5" x="464" y="1791.2031"/><rect fill="none" height="138.2422" style="stroke:#808080;stroke-width:1.5;" width="2439.5" x="474" y="1877.2578"/><line style="stroke:#000080;stroke-width:0.5;stroke-dasharray:5.0,5.0;" x1="38" x2="38" y1="82.6094" y2="2069.8516"/><line style="stroke:#000080;stroke-width:0.5;stroke-dasharray:5.0,5.0;" x1="383.5" x2="383.5" y1="82.6094" y2="2069.8516"/><line style="stroke:#000080;stroke-width:0.5;stroke-dasharray:5.0,5.0;" x1="542" x2="542" y1="82.6094" y2="2069.8516"/><line style="stroke:#000080;stroke-width:0.5;stroke-dasharray:5.0,5.0;" x1="934" x2="934" y1="82.6094" y2="2069.8516"/><line style="stroke:#000080;stroke-width:0.5;stroke-dasharray:5.0,5.0;" x1="1412" x2="1412" y1="82.6094" y2="2069.8516"/><line style="stroke:#000080;stroke-width:0.5;stroke-dasharray:5.0,5.0;" x1="1591.5" x2="1591.5" y1="82.6094" y2="2069.8516"/><line style="stroke:#000080;stroke-width:0.5;stroke-dasharray:5.0,5.0;" x1="1733.5" x2="1733.5" y1="82.6094" y2="2069.8516"/><line style="stroke:#000080;stroke-width:0.5;stroke-dasharray:5.0,5.0;" x1="2086" x2="2086" y1="82.6094" y2="2069.8516"/><line style="stroke:#000080;stroke-width:0.5;stroke-dasharray:5.0,5.0;" x1="2213" x2="2213" y1="82.6094" y2="2069.8516"/><line style="stroke:#000080;stroke-width:0.5;stroke-dasharray:5.0,5.0;" x1="2383" x2="2383" y1="82.6094" y2="2069.8516"/><line style="stroke:#000080;stroke-width:0.5;stroke-dasharray:5.0,5.0;" x1="2539" x2="2539" y1="82.6094" y2="2069.8516"/><line style="stroke:#000080;stroke-width:0.5;stroke-dasharray:5.0,5.0;" x1="2656" x2="2656" y1="82.6094" y2="2069.8516"/><line style="stroke:#000080;stroke-width:0.5;stroke-dasharray:5.0,5.0;" x1="2741" x2="2741" y1="82.6094" y2="2069.8516"/><line style="stroke:#000080;stroke-width:0.5;stroke-dasharray:5.0,5.0;" x1="2881.5" x2="2881.5" y1="82.6094" y2="2069.8516"/><text fill="#000000" font-family="sans-serif" font-size="14" lengthAdjust="spacing" textLength="61" x="5" y="79.5332">Customer</text><ellipse cx="38.5" cy="13.5" fill="#E2E2F0" rx="8" ry="8" style="stroke:#181818;stroke-width:0.5;"/><path d="M38.5,21.5 L38.5,48.5 M25.5,29.5 L51.5,29.5 M38.5,48.5 L25.5,63.5 M38.5,48.5 L51.5,63.5 " fill="none" style="stroke:#181818;stroke-width:0.5;"/><text fill="#000000" font-family="sans-serif" font-size="14" lengthAdjust="spacing" textLength="61" x="5" y="2083.3848">Customer</text><ellipse cx="38.5" cy="2094.9609" fill="#E2E2F0" rx="8" ry="8" style="stroke:#181818;stroke-width:0.5;"/><path d="M38.5,2102.9609 L38.5,2129.9609 M25.5,2110.9609 L51.5,2110.9609 M38.5,2129.9609 L25.5,2144.9609 M38.5,2129.9609 L51.5,2144.9609 " fill="none" style="stroke:#181818;stroke-width:0.5;"/><rect fill="#E2E2F0" height="31.6094" rx="2.5" ry="2.5" style="stroke:#181818;stroke-width:0.5;" width="130" x="318.5" y="50"/><text fill="#000000" font-family="sans-serif" font-size="14" lengthAdjust="spacing" textLength="116" x="325.5" y="71.5332">Client Registration</text><rect fill="#E2E2F0" height="31.6094" rx="2.5" ry="2.5" style="stroke:#181818;stroke-width:0.5;" width="130" x="318.5" y="2068.8516"/><text fill="#000000" font-family="sans-serif" font-size="14" lengthAdjust="spacing" textLength="116" x="325.5" y="2090.3848">Client Registration</text><rect fill="#E2E2F0" height="31.6094" rx="2.5" ry="2.5" style="stroke:#181818;stroke-width:0.5;" width="117" x="484" y="50"/><text fill="#000000" font-family="sans-serif" font-size="14" lengthAdjust="spacing" textLength="103" x="491" y="71.5332">Register Client()</text><rect fill="#E2E2F0" height="31.6094" rx="2.5" ry="2.5" style="stroke:#181818;stroke-width:0.5;" width="117" x="484" y="2068.8516"/><text fill="#000000" font-family="sans-serif" font-size="14" lengthAdjust="spacing" textLength="103" x="491" y="2090.3848">Register Client()</text><rect fill="#E2E2F0" height="31.6094" rx="2.5" ry="2.5" style="stroke:#181818;stroke-width:0.5;" width="161" x="854" y="50"/><text fill="#000000" font-family="sans-serif" font-size="14" lengthAdjust="spacing" textLength="147" x="861" y="71.5332">RegisterClientFuntion()</text><rect fill="#E2E2F0" height="31.6094" rx="2.5" ry="2.5" style="stroke:#181818;stroke-width:0.5;" width="161" x="854" y="2068.8516"/><text fill="#000000" font-family="sans-serif" font-size="14" lengthAdjust="spacing" textLength="147" x="861" y="2090.3848">RegisterClientFuntion()</text><rect fill="#E2E2F0" height="31.6094" rx="2.5" ry="2.5" style="stroke:#181818;stroke-width:0.5;" width="109" x="1358" y="50"/><text fill="#000000" font-family="sans-serif" font-size="14" lengthAdjust="spacing" textLength="95" x="1365" y="71.5332">retrieveGdids()</text><rect fill="#E2E2F0" height="31.6094" rx="2.5" ry="2.5" style="stroke:#181818;stroke-width:0.5;" width="109" x="1358" y="2068.8516"/><text fill="#000000" font-family="sans-serif" font-size="14" lengthAdjust="spacing" textLength="95" x="1365" y="2090.3848">retrieveGdids()</text><rect fill="#E2E2F0" height="31.6094" rx="2.5" ry="2.5" style="stroke:#181818;stroke-width:0.5;" width="88" x="1547.5" y="50"/><text fill="#000000" font-family="sans-serif" font-size="14" lengthAdjust="spacing" textLength="74" x="1554.5" y="71.5332">.GetGdids()</text><rect fill="#E2E2F0" height="31.6094" rx="2.5" ry="2.5" style="stroke:#181818;stroke-width:0.5;" width="88" x="1547.5" y="2068.8516"/><text fill="#000000" font-family="sans-serif" font-size="14" lengthAdjust="spacing" textLength="74" x="1554.5" y="2090.3848">.GetGdids()</text><rect fill="#E2E2F0" height="31.6094" rx="2.5" ry="2.5" style="stroke:#181818;stroke-width:0.5;" width="177" x="1645.5" y="50"/><text fill="#000000" font-family="sans-serif" font-size="14" lengthAdjust="spacing" textLength="163" x="1652.5" y="71.5332">AlreadyRegisteredAsDC()</text><rect fill="#E2E2F0" height="31.6094" rx="2.5" ry="2.5" style="stroke:#181818;stroke-width:0.5;" width="177" x="1645.5" y="2068.8516"/><text fill="#000000" font-family="sans-serif" font-size="14" lengthAdjust="spacing" textLength="163" x="1652.5" y="2090.3848">AlreadyRegisteredAsDC()</text><rect fill="#E2E2F0" height="31.6094" rx="2.5" ry="2.5" style="stroke:#181818;stroke-width:0.5;" width="94" x="2039" y="50"/><text fill="#000000" font-family="sans-serif" font-size="14" lengthAdjust="spacing" textLength="80" x="2046" y="71.5332">GetInstallId()</text><rect fill="#E2E2F0" height="31.6094" rx="2.5" ry="2.5" style="stroke:#181818;stroke-width:0.5;" width="94" x="2039" y="2068.8516"/><text fill="#000000" font-family="sans-serif" font-size="14" lengthAdjust="spacing" textLength="80" x="2046" y="2090.3848">GetInstallId()</text><rect fill="#E2E2F0" height="31.6094" rx="2.5" ry="2.5" style="stroke:#181818;stroke-width:0.5;" width="140" x="2143" y="50"/><text fill="#000000" font-family="sans-serif" font-size="14" lengthAdjust="spacing" textLength="126" x="2150" y="71.5332">UnregisteredasDC()</text><rect fill="#E2E2F0" height="31.6094" rx="2.5" ry="2.5" style="stroke:#181818;stroke-width:0.5;" width="140" x="2143" y="2068.8516"/><text fill="#000000" font-family="sans-serif" font-size="14" lengthAdjust="spacing" textLength="126" x="2150" y="2090.3848">UnregisteredasDC()</text><rect fill="#E2E2F0" height="31.6094" rx="2.5" ry="2.5" style="stroke:#181818;stroke-width:0.5;" width="180" x="2293" y="50"/><text fill="#000000" font-family="sans-serif" font-size="14" lengthAdjust="spacing" textLength="166" x="2300" y="71.5332">RegisterAlternativeClient()</text><rect fill="#E2E2F0" height="31.6094" rx="2.5" ry="2.5" style="stroke:#181818;stroke-width:0.5;" width="180" x="2293" y="2068.8516"/><text fill="#000000" font-family="sans-serif" font-size="14" lengthAdjust="spacing" textLength="166" x="2300" y="2090.3848">RegisterAlternativeClient()</text><rect fill="#E2E2F0" height="31.6094" rx="2.5" ry="2.5" style="stroke:#181818;stroke-width:0.5;" width="113" x="2483" y="50"/><text fill="#000000" font-family="sans-serif" font-size="14" lengthAdjust="spacing" textLength="99" x="2490" y="71.5332">RegisterClient()</text><rect fill="#E2E2F0" height="31.6094" rx="2.5" ry="2.5" style="stroke:#181818;stroke-width:0.5;" width="113" x="2483" y="2068.8516"/><text fill="#000000" font-family="sans-serif" font-size="14" lengthAdjust="spacing" textLength="99" x="2490" y="2090.3848">RegisterClient()</text><rect fill="#E2E2F0" height="31.6094" rx="2.5" ry="2.5" style="stroke:#181818;stroke-width:0.5;" width="100" x="2606" y="50"/><text fill="#000000" font-family="sans-serif" font-size="14" lengthAdjust="spacing" textLength="86" x="2613" y="71.5332">SadbSubmit()</text><rect fill="#E2E2F0" height="31.6094" rx="2.5" ry="2.5" style="stroke:#181818;stroke-width:0.5;" width="100" x="2606" y="2068.8516"/><text fill="#000000" font-family="sans-serif" font-size="14" lengthAdjust="spacing" textLength="86" x="2613" y="2090.3848">SadbSubmit()</text><text fill="#000000" font-family="sans-serif" font-size="14" lengthAdjust="spacing" textLength="44" x="2716" y="79.5332">AppDB</text><path d="M2723,29 C2723,19 2741,19 2741,19 C2741,19 2759,19 2759,29 L2759,55 C2759,65 2741,65 2741,65 C2741,65 2723,65 2723,55 L2723,29 " fill="#E2E2F0" style="stroke:#181818;stroke-width:1.5;"/><path d="M2723,29 C2723,39 2741,39 2741,39 C2741,39 2759,39 2759,29 " fill="none" style="stroke:#181818;stroke-width:1.5;"/><text fill="#000000" font-family="sans-serif" font-size="14" lengthAdjust="spacing" textLength="44" x="2716" y="2083.3848">AppDB</text><path d="M2723,2096.4609 C2723,2086.4609 2741,2086.4609 2741,2086.4609 C2741,2086.4609 2759,2086.4609 2759,2096.4609 L2759,2122.4609 C2759,2132.4609 2741,2132.4609 2741,2132.4609 C2741,2132.4609 2723,2132.4609 2723,2122.4609 L2723,2096.4609 " fill="#E2E2F0" style="stroke:#181818;stroke-width:1.5;"/><path d="M2723,2096.4609 C2723,2106.4609 2741,2106.4609 2741,2106.4609 C2741,2106.4609 2759,2106.4609 2759,2096.4609 " fill="none" style="stroke:#181818;stroke-width:1.5;"/><text fill="#000000" font-family="sans-serif" font-size="14" lengthAdjust="spacing" textLength="37" x="2860.5" y="79.5332">SADB</text><path d="M2864,29 C2864,19 2882,19 2882,19 C2882,19 2900,19 2900,29 L2900,55 C2900,65 2882,65 2882,65 C2882,65 2864,65 2864,55 L2864,29 " fill="#E2E2F0" style="stroke:#181818;stroke-width:1.5;"/><path d="M2864,29 C2864,39 2882,39 2882,39 C2882,39 2900,39 2900,29 " fill="none" style="stroke:#181818;stroke-width:1.5;"/><text fill="#000000" font-family="sans-serif" font-size="14" lengthAdjust="spacing" textLength="37" x="2860.5" y="2083.3848">SADB</text><path d="M2864,2096.4609 C2864,2086.4609 2882,2086.4609 2882,2086.4609 C2882,2086.4609 2900,2086.4609 2900,2096.4609 L2900,2122.4609 C2900,2132.4609 2882,2132.4609 2882,2132.4609 C2882,2132.4609 2864,2132.4609 2864,2122.4609 L2864,2096.4609 " fill="#E2E2F0" style="stroke:#181818;stroke-width:1.5;"/><path d="M2864,2096.4609 C2864,2106.4609 2882,2106.4609 2882,2106.4609 C2882,2106.4609 2900,2106.4609 2900,2096.4609 " fill="none" style="stroke:#181818;stroke-width:1.5;"/><polygon fill="#00008B" points="371.5,110.9609,381.5,114.9609,371.5,118.9609,375.5,114.9609" style="stroke:#00008B;stroke-width:1.0;"/><line style="stroke:#00008B;stroke-width:1.0;" x1="38.5" x2="377.5" y1="114.9609" y2="114.9609"/><text fill="#000000" font-family="sans-serif" font-size="13" lengthAdjust="spacing" textLength="321" x="45.5" y="110.1045">(User use this service for registration by putting Xml file)</text><polygon fill="#00008B" points="530.5,141.3125,540.5,145.3125,530.5,149.3125,534.5,145.3125" style="stroke:#00008B;stroke-width:1.0;"/><line style="stroke:#00008B;stroke-width:1.0;" x1="383.5" x2="536.5" y1="145.3125" y2="145.3125"/><text fill="#000000" font-family="sans-serif" font-size="13" lengthAdjust="spacing" textLength="135" x="390.5" y="140.4561">Called with xml request</text><polygon fill="#00008B" points="922.5,171.6641,932.5,175.6641,922.5,179.6641,926.5,175.6641" style="stroke:#00008B;stroke-width:1.0;"/><line style="stroke:#00008B;stroke-width:1.0;" x1="542.5" x2="928.5" y1="175.6641" y2="175.6641"/><text fill="#000000" font-family="sans-serif" font-size="13" lengthAdjust="spacing" textLength="321" x="549.5" y="170.8076">Passing xml request+ref string(successfailureMessage)</text><path d="M474,190.6641 L535,190.6641 L535,199.0156 L525,209.0156 L474,209.0156 L474,190.6641 " fill="#F5F5F5" style="stroke:#808080;stroke-width:1.5;"/><rect fill="none" height="92.0547" style="stroke:#808080;stroke-width:1.5;" width="753.5" x="474" y="190.6641"/><text fill="#000000" font-family="sans-serif" font-size="13" font-weight="bold" lengthAdjust="spacing" textLength="16" x="489" y="205.1592">alt</text><text fill="#000000" font-family="sans-serif" font-size="11" font-weight="bold" lengthAdjust="spacing" textLength="110" x="550" y="204.083">[Request file is null]</text><line style="stroke:#00008B;stroke-width:1.0;" x1="934.5" x2="976.5" y1="231.3672" y2="231.3672"/><line style="stroke:#00008B;stroke-width:1.0;" x1="976.5" x2="976.5" y1="231.3672" y2="244.3672"/><line style="stroke:#00008B;stroke-width:1.0;" x1="935.5" x2="976.5" y1="244.3672" y2="244.3672"/><polygon fill="#00008B" points="945.5,240.3672,935.5,244.3672,945.5,248.3672,941.5,244.3672" style="stroke:#00008B;stroke-width:1.0;"/><text fill="#000000" font-family="sans-serif" font-size="13" lengthAdjust="spacing" textLength="274" x="941.5" y="226.5107">successfailureMessage="Required missing file"</text><polygon fill="#00008B" points="553.5,270.7188,543.5,274.7188,553.5,278.7188,549.5,274.7188" style="stroke:#00008B;stroke-width:1.0;"/><line style="stroke:#00008B;stroke-width:1.0;stroke-dasharray:2.0,2.0;" x1="547.5" x2="933.5" y1="274.7188" y2="274.7188"/><text fill="#000000" font-family="sans-serif" font-size="13" lengthAdjust="spacing" textLength="285" x="559.5" y="269.8623">ClientRegistrationError().result(Registration failed)</text><path d="M474,296.7188 L535,296.7188 L535,305.0703 L525,315.0703 L474,315.0703 L474,296.7188 " fill="#F5F5F5" style="stroke:#808080;stroke-width:1.5;"/><rect fill="none" height="92.0547" style="stroke:#808080;stroke-width:1.5;" width="909.5" x="474" y="296.7188"/><text fill="#000000" font-family="sans-serif" font-size="13" font-weight="bold" lengthAdjust="spacing" textLength="16" x="489" y="311.2139">alt</text><text fill="#000000" font-family="sans-serif" font-size="11" font-weight="bold" lengthAdjust="spacing" textLength="142" x="550" y="310.1377">[Extracted xsdpath is null]</text><line style="stroke:#00008B;stroke-width:1.0;" x1="934.5" x2="976.5" y1="337.4219" y2="337.4219"/><line style="stroke:#00008B;stroke-width:1.0;" x1="976.5" x2="976.5" y1="337.4219" y2="350.4219"/><line style="stroke:#00008B;stroke-width:1.0;" x1="935.5" x2="976.5" y1="350.4219" y2="350.4219"/><polygon fill="#00008B" points="945.5,346.4219,935.5,350.4219,945.5,354.4219,941.5,350.4219" style="stroke:#00008B;stroke-width:1.0;"/><text fill="#000000" font-family="sans-serif" font-size="13" lengthAdjust="spacing" textLength="430" x="941.5" y="332.5654">successfailureMessage="null requestXsdPath retrieved from the config file"</text><polygon fill="#00008B" points="553.5,376.7734,543.5,380.7734,553.5,384.7734,549.5,380.7734" style="stroke:#00008B;stroke-width:1.0;"/><line style="stroke:#00008B;stroke-width:1.0;stroke-dasharray:2.0,2.0;" x1="547.5" x2="933.5" y1="380.7734" y2="380.7734"/><text fill="#000000" font-family="sans-serif" font-size="13" lengthAdjust="spacing" textLength="285" x="559.5" y="375.917">ClientRegistrationError().result(Registration failed)</text><line style="stroke:#00008B;stroke-width:1.0;" x1="934.5" x2="976.5" y1="434.4766" y2="434.4766"/><line style="stroke:#00008B;stroke-width:1.0;" x1="976.5" x2="976.5" y1="434.4766" y2="447.4766"/><line style="stroke:#00008B;stroke-width:1.0;" x1="935.5" x2="976.5" y1="447.4766" y2="447.4766"/><polygon fill="#00008B" points="945.5,443.4766,935.5,447.4766,945.5,451.4766,941.5,447.4766" style="stroke:#00008B;stroke-width:1.0;"/><text fill="#000000" font-family="sans-serif" font-size="13" lengthAdjust="spacing" textLength="151" x="941.5" y="413.2686">Validating the xml request</text><text fill="#000000" font-family="sans-serif" font-size="13" lengthAdjust="spacing" textLength="273" x="941.5" y="429.6201">( Using ServiceExtensions.ConvertAndValidate)</text><path d="M464,462.4766 L525,462.4766 L525,470.8281 L515,480.8281 L464,480.8281 L464,462.4766 " fill="#F5F5F5" style="stroke:#808080;stroke-width:1.5;"/><rect fill="none" height="213.9453" style="stroke:#808080;stroke-width:1.5;" width="963.5" x="464" y="462.4766"/><text fill="#000000" font-family="sans-serif" font-size="13" font-weight="bold" lengthAdjust="spacing" textLength="16" x="479" y="476.9717">alt</text><text fill="#000000" font-family="sans-serif" font-size="11" font-weight="bold" lengthAdjust="spacing" textLength="95" x="540" y="475.8955">[Validation failed]</text><path d="M474,487.8281 L535,487.8281 L535,496.1797 L525,506.1797 L474,506.1797 L474,487.8281 " fill="#F5F5F5" style="stroke:#808080;stroke-width:1.5;"/><rect fill="none" height="181.5938" style="stroke:#808080;stroke-width:1.5;" width="943.5" x="474" y="487.8281"/><text fill="#000000" font-family="sans-serif" font-size="13" font-weight="bold" lengthAdjust="spacing" textLength="16" x="489" y="502.3232">alt</text><text fill="#000000" font-family="sans-serif" font-size="11" font-weight="bold" lengthAdjust="spacing" textLength="126" x="550" y="501.2471">[XmlSchemaException]</text><line style="stroke:#00008B;stroke-width:1.0;" x1="934.5" x2="976.5" y1="528.5313" y2="528.5313"/><line style="stroke:#00008B;stroke-width:1.0;" x1="976.5" x2="976.5" y1="528.5313" y2="541.5313"/><line style="stroke:#00008B;stroke-width:1.0;" x1="935.5" x2="976.5" y1="541.5313" y2="541.5313"/><polygon fill="#00008B" points="945.5,537.5313,935.5,541.5313,945.5,545.5313,941.5,541.5313" style="stroke:#00008B;stroke-width:1.0;"/><text fill="#000000" font-family="sans-serif" font-size="13" lengthAdjust="spacing" textLength="356" x="941.5" y="523.6748">successfailureMessage="registration request validation failed"</text><polygon fill="#00008B" points="553.5,567.8828,543.5,571.8828,553.5,575.8828,549.5,571.8828" style="stroke:#00008B;stroke-width:1.0;"/><line style="stroke:#00008B;stroke-width:1.0;stroke-dasharray:2.0,2.0;" x1="547.5" x2="933.5" y1="571.8828" y2="571.8828"/><text fill="#000000" font-family="sans-serif" font-size="13" lengthAdjust="spacing" textLength="368" x="559.5" y="567.0264">ClientRegistrationInvalidRequestError().result(Registration failed)</text><line style="stroke:#808080;stroke-width:1.0;stroke-dasharray:2.0,2.0;" x1="474" x2="1417.5" y1="580.8828" y2="580.8828"/><text fill="#000000" font-family="sans-serif" font-size="11" font-weight="bold" lengthAdjust="spacing" textLength="96" x="479" y="592.3018">[Other exception]</text><line style="stroke:#00008B;stroke-width:1.0;" x1="934.5" x2="976.5" y1="618.0703" y2="618.0703"/><line style="stroke:#00008B;stroke-width:1.0;" x1="976.5" x2="976.5" y1="618.0703" y2="631.0703"/><line style="stroke:#00008B;stroke-width:1.0;" x1="935.5" x2="976.5" y1="631.0703" y2="631.0703"/><polygon fill="#00008B" points="945.5,627.0703,935.5,631.0703,945.5,635.0703,941.5,631.0703" style="stroke:#00008B;stroke-width:1.0;"/><text fill="#000000" font-family="sans-serif" font-size="13" lengthAdjust="spacing" textLength="464" x="941.5" y="613.2139">successfailureMessage="unexpected error trying to validate registration request"</text><polygon fill="#00008B" points="553.5,657.4219,543.5,661.4219,553.5,665.4219,549.5,661.4219" style="stroke:#00008B;stroke-width:1.0;"/><line style="stroke:#00008B;stroke-width:1.0;stroke-dasharray:2.0,2.0;" x1="547.5" x2="933.5" y1="661.4219" y2="661.4219"/><text fill="#000000" font-family="sans-serif" font-size="13" lengthAdjust="spacing" textLength="368" x="559.5" y="656.5654">ClientRegistrationInvalidRequestError().result(Registration failed)</text><polygon fill="#00008B" points="1400.5,701.7734,1410.5,705.7734,1400.5,709.7734,1404.5,705.7734" style="stroke:#00008B;stroke-width:1.0;"/><line style="stroke:#00008B;stroke-width:1.0;" x1="934.5" x2="1406.5" y1="705.7734" y2="705.7734"/><text fill="#000000" font-family="sans-serif" font-size="13" lengthAdjust="spacing" textLength="278" x="941.5" y="700.917">Calling "retrieveGdids()" to generate the OSgdid,</text><path d="M464,720.7734 L525,720.7734 L525,729.125 L515,739.125 L464,739.125 L464,720.7734 " fill="#F5F5F5" style="stroke:#808080;stroke-width:1.5;"/><rect fill="none" height="399.7266" style="stroke:#808080;stroke-width:1.5;" width="1181.5" x="464" y="720.7734"/><text fill="#000000" font-family="sans-serif" font-size="13" font-weight="bold" lengthAdjust="spacing" textLength="16" x="479" y="735.2686">alt</text><text fill="#000000" font-family="sans-serif" font-size="11" font-weight="bold" lengthAdjust="spacing" textLength="101" x="540" y="734.1924">[Service Available]</text><polygon fill="#00008B" points="1579.5,757.4766,1589.5,761.4766,1579.5,765.4766,1583.5,761.4766" style="stroke:#00008B;stroke-width:1.0;"/><line style="stroke:#00008B;stroke-width:1.0;" x1="1412.5" x2="1585.5" y1="761.4766" y2="761.4766"/><text fill="#000000" font-family="sans-serif" font-size="13" lengthAdjust="spacing" textLength="116" x="1419.5" y="756.6201">Calling "GetGdids()"</text><polygon fill="#00008B" points="1423.5,787.8281,1413.5,791.8281,1423.5,795.8281,1419.5,791.8281" style="stroke:#00008B;stroke-width:1.0;"/><line style="stroke:#00008B;stroke-width:1.0;stroke-dasharray:2.0,2.0;" x1="1417.5" x2="1590.5" y1="791.8281" y2="791.8281"/><text fill="#000000" font-family="sans-serif" font-size="13" lengthAdjust="spacing" textLength="155" x="1429.5" y="786.9717">returning   GdidResponse[]</text><polygon fill="#00008B" points="922.5,818.1797,932.5,822.1797,922.5,826.1797,926.5,822.1797" style="stroke:#00008B;stroke-width:1.0;"/><line style="stroke:#00008B;stroke-width:1.0;stroke-dasharray:2.0,2.0;" x1="542.5" x2="928.5" y1="822.1797" y2="822.1797"/><text fill="#000000" font-family="sans-serif" font-size="13" lengthAdjust="spacing" textLength="243" x="549.5" y="817.3232">returning array(Containing all required info)</text><path d="M474,837.1797 L535,837.1797 L535,845.5313 L525,855.5313 L474,855.5313 L474,837.1797 " fill="#F5F5F5" style="stroke:#808080;stroke-width:1.5;"/><rect fill="none" height="167.5938" style="stroke:#808080;stroke-width:1.5;" width="731.5" x="474" y="837.1797"/><text fill="#000000" font-family="sans-serif" font-size="13" font-weight="bold" lengthAdjust="spacing" textLength="16" x="489" y="851.6748">alt</text><text fill="#000000" font-family="sans-serif" font-size="11" font-weight="bold" lengthAdjust="spacing" textLength="69" x="550" y="850.5986">[Gdid is null]</text><line style="stroke:#00008B;stroke-width:1.0;" x1="934.5" x2="976.5" y1="877.8828" y2="877.8828"/><line style="stroke:#00008B;stroke-width:1.0;" x1="976.5" x2="976.5" y1="877.8828" y2="890.8828"/><line style="stroke:#00008B;stroke-width:1.0;" x1="935.5" x2="976.5" y1="890.8828" y2="890.8828"/><polygon fill="#00008B" points="945.5,886.8828,935.5,890.8828,945.5,894.8828,941.5,890.8828" style="stroke:#00008B;stroke-width:1.0;"/><text fill="#000000" font-family="sans-serif" font-size="13" lengthAdjust="spacing" textLength="234" x="941.5" y="873.0264">successFailureMessage = "Gdid is Null"</text><polygon fill="#00008B" points="553.5,933.5859,543.5,937.5859,553.5,941.5859,549.5,937.5859" style="stroke:#00008B;stroke-width:1.0;"/><line style="stroke:#00008B;stroke-width:1.0;stroke-dasharray:2.0,2.0;" x1="547.5" x2="933.5" y1="937.5859" y2="937.5859"/><text fill="#000000" font-family="sans-serif" font-size="13" lengthAdjust="spacing" textLength="311" x="559.5" y="916.3779">returning ClientRegistrationInvalidRequestError().result</text><text fill="#000000" font-family="sans-serif" font-size="13" lengthAdjust="spacing" textLength="111" x="559.5" y="932.7295">(Registration failed)</text><line style="stroke:#808080;stroke-width:1.0;stroke-dasharray:2.0,2.0;" x1="474" x2="1205.5" y1="946.5859" y2="946.5859"/><text fill="#000000" font-family="sans-serif" font-size="11" font-weight="bold" lengthAdjust="spacing" textLength="93" x="479" y="958.0049">[Gdid is  not null]</text><line style="stroke:#00008B;stroke-width:1.0;" x1="934.5" x2="976.5" y1="983.7734" y2="983.7734"/><line style="stroke:#00008B;stroke-width:1.0;" x1="976.5" x2="976.5" y1="983.7734" y2="996.7734"/><line style="stroke:#00008B;stroke-width:1.0;" x1="935.5" x2="976.5" y1="996.7734" y2="996.7734"/><polygon fill="#00008B" points="945.5,992.7734,935.5,996.7734,945.5,1000.7734,941.5,996.7734" style="stroke:#00008B;stroke-width:1.0;"/><text fill="#000000" font-family="sans-serif" font-size="13" lengthAdjust="spacing" textLength="252" x="941.5" y="978.917">Initialize HWgdid,OSgdid from the responce</text><line style="stroke:#808080;stroke-width:1.0;stroke-dasharray:2.0,2.0;" x1="464" x2="1645.5" y1="1012.7734" y2="1012.7734"/><text fill="#000000" font-family="sans-serif" font-size="11" font-weight="bold" lengthAdjust="spacing" textLength="110" x="469" y="1024.1924">[ServiceUnavailable]</text><polygon fill="#00008B" points="553.5,1062.3125,543.5,1066.3125,553.5,1070.3125,549.5,1066.3125" style="stroke:#00008B;stroke-width:1.0;"/><line style="stroke:#00008B;stroke-width:1.0;stroke-dasharray:2.0,2.0;" x1="547.5" x2="1411.5" y1="1066.3125" y2="1066.3125"/><text fill="#000000" font-family="sans-serif" font-size="13" lengthAdjust="spacing" textLength="308" x="559.5" y="1045.1045">ClientRegistrationGdidServiceUnavailableError().result</text><text fill="#000000" font-family="sans-serif" font-size="13" lengthAdjust="spacing" textLength="172" x="559.5" y="1061.4561">(GDID service is not available)</text><line style="stroke:#808080;stroke-width:1.0;stroke-dasharray:2.0,2.0;" x1="464" x2="1645.5" y1="1075.3125" y2="1075.3125"/><text fill="#000000" font-family="sans-serif" font-size="11" font-weight="bold" lengthAdjust="spacing" textLength="96" x="469" y="1086.7314">[Other exception]</text><polygon fill="#00008B" points="553.5,1108.5,543.5,1112.5,553.5,1116.5,549.5,1112.5" style="stroke:#00008B;stroke-width:1.0;"/><line style="stroke:#00008B;stroke-width:1.0;stroke-dasharray:2.0,2.0;" x1="547.5" x2="1411.5" y1="1112.5" y2="1112.5"/><text fill="#000000" font-family="sans-serif" font-size="13" lengthAdjust="spacing" textLength="222" x="559.5" y="1107.6436">ClientRegistrationGetGdidError().result</text><line style="stroke:#00008B;stroke-width:1.0;" x1="934.5" x2="976.5" y1="1166.2031" y2="1166.2031"/><line style="stroke:#00008B;stroke-width:1.0;" x1="976.5" x2="976.5" y1="1166.2031" y2="1179.2031"/><line style="stroke:#00008B;stroke-width:1.0;" x1="935.5" x2="976.5" y1="1179.2031" y2="1179.2031"/><polygon fill="#00008B" points="945.5,1175.2031,935.5,1179.2031,945.5,1183.2031,941.5,1179.2031" style="stroke:#00008B;stroke-width:1.0;"/><text fill="#000000" font-family="sans-serif" font-size="13" lengthAdjust="spacing" textLength="128" x="941.5" y="1144.9951">Doing Activity Logging</text><text fill="#000000" font-family="sans-serif" font-size="13" lengthAdjust="spacing" textLength="284" x="941.5" y="1161.3467">(through activityDA.InsertValuesToActivityTable())</text><line style="stroke:#00008B;stroke-width:1.0;" x1="934.5" x2="976.5" y1="1225.9063" y2="1225.9063"/><line style="stroke:#00008B;stroke-width:1.0;" x1="976.5" x2="976.5" y1="1225.9063" y2="1238.9063"/><line style="stroke:#00008B;stroke-width:1.0;" x1="935.5" x2="976.5" y1="1238.9063" y2="1238.9063"/><polygon fill="#00008B" points="945.5,1234.9063,935.5,1238.9063,945.5,1242.9063,941.5,1238.9063" style="stroke:#00008B;stroke-width:1.0;"/><text fill="#000000" font-family="sans-serif" font-size="13" lengthAdjust="spacing" textLength="257" x="941.5" y="1204.6982">Generating the Registration token using gdid</text><text fill="#000000" font-family="sans-serif" font-size="13" lengthAdjust="spacing" textLength="274" x="941.5" y="1221.0498">( through RegistrationToken.CreateFromGdid()))</text><line style="stroke:#00008B;stroke-width:1.0;" x1="934.5" x2="976.5" y1="1269.2578" y2="1269.2578"/><line style="stroke:#00008B;stroke-width:1.0;" x1="976.5" x2="976.5" y1="1269.2578" y2="1282.2578"/><line style="stroke:#00008B;stroke-width:1.0;" x1="935.5" x2="976.5" y1="1282.2578" y2="1282.2578"/><polygon fill="#00008B" points="945.5,1278.2578,935.5,1282.2578,945.5,1286.2578,941.5,1282.2578" style="stroke:#00008B;stroke-width:1.0;"/><text fill="#000000" font-family="sans-serif" font-size="13" lengthAdjust="spacing" textLength="257" x="941.5" y="1264.4014">Extracting the InstallID from generated token</text><path d="M834,1297.2578 L895,1297.2578 L895,1305.6094 L885,1315.6094 L834,1315.6094 L834,1297.2578 " fill="#F5F5F5" style="stroke:#808080;stroke-width:1.5;"/><rect fill="none" height="308.3516" style="stroke:#808080;stroke-width:1.5;" width="1469" x="834" y="1297.2578"/><text fill="#000000" font-family="sans-serif" font-size="13" font-weight="bold" lengthAdjust="spacing" textLength="16" x="849" y="1311.7529">alt</text><text fill="#000000" font-family="sans-serif" font-size="11" font-weight="bold" lengthAdjust="spacing" textLength="254" x="910" y="1310.6768">[attempting to create device entries in AppDB]</text><polygon fill="#00008B" points="1722,1333.9609,1732,1337.9609,1722,1341.9609,1726,1337.9609" style="stroke:#00008B;stroke-width:1.0;"/><line style="stroke:#00008B;stroke-width:1.0;" x1="934.5" x2="1728" y1="1337.9609" y2="1337.9609"/><text fill="#000000" font-family="sans-serif" font-size="13" lengthAdjust="spacing" textLength="157" x="941.5" y="1333.1045">Calling method with hwgdid</text><polygon fill="#00008B" points="2074,1364.3125,2084,1368.3125,2074,1372.3125,2078,1368.3125" style="stroke:#00008B;stroke-width:1.0;"/><line style="stroke:#00008B;stroke-width:1.0;" x1="1734" x2="2080" y1="1368.3125" y2="1368.3125"/><text fill="#000000" font-family="sans-serif" font-size="13" lengthAdjust="spacing" textLength="236" x="1741" y="1363.4561">calling method "GetInstallID()" using gdid</text><polygon fill="#00008B" points="1745,1394.6641,1735,1398.6641,1745,1402.6641,1741,1398.6641" style="stroke:#00008B;stroke-width:1.0;"/><line style="stroke:#00008B;stroke-width:1.0;stroke-dasharray:2.0,2.0;" x1="1739" x2="2085" y1="1398.6641" y2="1398.6641"/><text fill="#000000" font-family="sans-serif" font-size="13" lengthAdjust="spacing" textLength="328" x="1751" y="1393.8076">Returning String(which is basically InstallID) as response</text><path d="M844,1413.6641 L905,1413.6641 L905,1422.0156 L895,1432.0156 L844,1432.0156 L844,1413.6641 " fill="#F5F5F5" style="stroke:#808080;stroke-width:1.5;"/><rect fill="none" height="184.9453" style="stroke:#808080;stroke-width:1.5;" width="1449" x="844" y="1413.6641"/><text fill="#000000" font-family="sans-serif" font-size="13" font-weight="bold" lengthAdjust="spacing" textLength="16" x="859" y="1428.1592">alt</text><text fill="#000000" font-family="sans-serif" font-size="11" font-weight="bold" lengthAdjust="spacing" textLength="108" x="920" y="1427.083">[InstallID is not null]</text><polygon fill="#00008B" points="945.5,1450.3672,935.5,1454.3672,945.5,1458.3672,941.5,1454.3672" style="stroke:#00008B;stroke-width:1.0;"/><line style="stroke:#00008B;stroke-width:1.0;stroke-dasharray:2.0,2.0;" x1="939.5" x2="1733" y1="1454.3672" y2="1454.3672"/><text fill="#000000" font-family="sans-serif" font-size="13" lengthAdjust="spacing" textLength="190" x="951.5" y="1449.5107">Already Registered as DC device</text><polygon fill="#00008B" points="2201,1480.7188,2211,1484.7188,2201,1488.7188,2205,1484.7188" style="stroke:#00008B;stroke-width:1.0;"/><line style="stroke:#00008B;stroke-width:1.0;" x1="934.5" x2="2207" y1="1484.7188" y2="1484.7188"/><text fill="#000000" font-family="sans-serif" font-size="13" lengthAdjust="spacing" textLength="272" x="941.5" y="1479.8623">access.UnregisterDevice()[calling to unregister]</text><polygon fill="#00008B" points="945.5,1527.4219,935.5,1531.4219,945.5,1535.4219,941.5,1531.4219" style="stroke:#00008B;stroke-width:1.0;"/><line style="stroke:#00008B;stroke-width:1.0;stroke-dasharray:2.0,2.0;" x1="939.5" x2="2212" y1="1531.4219" y2="1531.4219"/><text fill="#000000" font-family="sans-serif" font-size="13" lengthAdjust="spacing" textLength="168" x="951.5" y="1510.2139">returning integer as response</text><text fill="#000000" font-family="sans-serif" font-size="13" lengthAdjust="spacing" textLength="188" x="951.5" y="1526.5654">(if 0 unregisteres,else exception)</text><line style="stroke:#808080;stroke-width:1.0;stroke-dasharray:2.0,2.0;" x1="844" x2="2293" y1="1540.4219" y2="1540.4219"/><text fill="#000000" font-family="sans-serif" font-size="11" font-weight="bold" lengthAdjust="spacing" textLength="87" x="849" y="1551.8408">[InstallID is null]</text><line style="stroke:#00008B;stroke-width:1.0;" x1="934.5" x2="976.5" y1="1577.6094" y2="1577.6094"/><line style="stroke:#00008B;stroke-width:1.0;" x1="976.5" x2="976.5" y1="1577.6094" y2="1590.6094"/><line style="stroke:#00008B;stroke-width:1.0;" x1="935.5" x2="976.5" y1="1590.6094" y2="1590.6094"/><polygon fill="#00008B" points="945.5,1586.6094,935.5,1590.6094,945.5,1594.6094,941.5,1590.6094" style="stroke:#00008B;stroke-width:1.0;"/><text fill="#000000" font-family="sans-serif" font-size="13" lengthAdjust="spacing" textLength="151" x="941.5" y="1572.7529">New device for registration</text><path d="M834,1619.6094 L895,1619.6094 L895,1627.9609 L885,1637.9609 L834,1637.9609 L834,1619.6094 " fill="#F5F5F5" style="stroke:#808080;stroke-width:1.5;"/><rect fill="none" height="157.5938" style="stroke:#808080;stroke-width:1.5;" width="1952" x="834" y="1619.6094"/><text fill="#000000" font-family="sans-serif" font-size="13" font-weight="bold" lengthAdjust="spacing" textLength="16" x="849" y="1634.1045">alt</text><text fill="#000000" font-family="sans-serif" font-size="11" font-weight="bold" lengthAdjust="spacing" textLength="114" x="910" y="1633.0283">[Checking for Client]</text><path d="M844,1644.9609 L905,1644.9609 L905,1653.3125 L895,1663.3125 L844,1663.3125 L844,1644.9609 " fill="#F5F5F5" style="stroke:#808080;stroke-width:1.5;"/><rect fill="none" height="125.2422" style="stroke:#808080;stroke-width:1.5;" width="1932" x="844" y="1644.9609"/><text fill="#000000" font-family="sans-serif" font-size="13" font-weight="bold" lengthAdjust="spacing" textLength="16" x="859" y="1659.4561">alt</text><text fill="#000000" font-family="sans-serif" font-size="11" font-weight="bold" lengthAdjust="spacing" textLength="82" x="920" y="1658.3799">[Client is Fake]</text><polygon fill="#00008B" points="2371,1681.6641,2381,1685.6641,2371,1689.6641,2375,1685.6641" style="stroke:#00008B;stroke-width:1.0;"/><line style="stroke:#00008B;stroke-width:1.0;" x1="934.5" x2="2377" y1="1685.6641" y2="1685.6641"/><text fill="#000000" font-family="sans-serif" font-size="13" lengthAdjust="spacing" textLength="165" x="941.5" y="1680.8076">Registring as alternate client</text><line style="stroke:#808080;stroke-width:1.0;stroke-dasharray:2.0,2.0;" x1="844" x2="2776" y1="1694.6641" y2="1694.6641"/><text fill="#000000" font-family="sans-serif" font-size="11" font-weight="bold" lengthAdjust="spacing" textLength="103" x="849" y="1706.083">[Client is not Fake]</text><polygon fill="#00008B" points="2527.5,1727.8516,2537.5,1731.8516,2527.5,1735.8516,2531.5,1731.8516" style="stroke:#00008B;stroke-width:1.0;"/><line style="stroke:#00008B;stroke-width:1.0;" x1="934.5" x2="2533.5" y1="1731.8516" y2="1731.8516"/><text fill="#000000" font-family="sans-serif" font-size="13" lengthAdjust="spacing" textLength="165" x="941.5" y="1726.9951">Registring as Genuine Client</text><polygon fill="#00008B" points="2729,1758.2031,2739,1762.2031,2729,1766.2031,2733,1762.2031" style="stroke:#00008B;stroke-width:1.0;"/><line style="stroke:#00008B;stroke-width:1.0;" x1="934.5" x2="2735" y1="1762.2031" y2="1762.2031"/><text fill="#000000" font-family="sans-serif" font-size="13" lengthAdjust="spacing" textLength="192" x="941.5" y="1757.3467">Submmiting all the info to AppDB</text><path d="M464,1791.2031 L525,1791.2031 L525,1799.5547 L515,1809.5547 L464,1809.5547 L464,1791.2031 " fill="#F5F5F5" style="stroke:#808080;stroke-width:1.5;"/><rect fill="none" height="231.2969" style="stroke:#808080;stroke-width:1.5;" width="2459.5" x="464" y="1791.2031"/><text fill="#000000" font-family="sans-serif" font-size="13" font-weight="bold" lengthAdjust="spacing" textLength="16" x="479" y="1805.6982">alt</text><text fill="#000000" font-family="sans-serif" font-size="11" font-weight="bold" lengthAdjust="spacing" textLength="97" x="540" y="1804.6221">[Sending to Sadb]</text><polygon fill="#00008B" points="2644,1827.9063,2654,1831.9063,2644,1835.9063,2648,1831.9063" style="stroke:#00008B;stroke-width:1.0;"/><line style="stroke:#00008B;stroke-width:1.0;" x1="934.5" x2="2650" y1="1831.9063" y2="1831.9063"/><text fill="#000000" font-family="sans-serif" font-size="13" lengthAdjust="spacing" textLength="188" x="941.5" y="1827.0498">Calling method to check for error</text><polygon fill="#00008B" points="945.5,1858.2578,935.5,1862.2578,945.5,1866.2578,941.5,1862.2578" style="stroke:#00008B;stroke-width:1.0;"/><line style="stroke:#00008B;stroke-width:1.0;stroke-dasharray:2.0,2.0;" x1="939.5" x2="2655" y1="1862.2578" y2="1862.2578"/><text fill="#000000" font-family="sans-serif" font-size="13" lengthAdjust="spacing" textLength="155" x="951.5" y="1857.4014">returning error as responce</text><path d="M474,1877.2578 L535,1877.2578 L535,1885.6094 L525,1895.6094 L474,1895.6094 L474,1877.2578 " fill="#F5F5F5" style="stroke:#808080;stroke-width:1.5;"/><rect fill="none" height="138.2422" style="stroke:#808080;stroke-width:1.5;" width="2439.5" x="474" y="1877.2578"/><text fill="#000000" font-family="sans-serif" font-size="13" font-weight="bold" lengthAdjust="spacing" textLength="16" x="489" y="1891.7529">alt</text><text fill="#000000" font-family="sans-serif" font-size="11" font-weight="bold" lengthAdjust="spacing" textLength="65" x="550" y="1890.6768">[Error!=null]</text><line style="stroke:#00008B;stroke-width:1.0;" x1="934.5" x2="976.5" y1="1917.9609" y2="1917.9609"/><line style="stroke:#00008B;stroke-width:1.0;" x1="976.5" x2="976.5" y1="1917.9609" y2="1930.9609"/><line style="stroke:#00008B;stroke-width:1.0;" x1="935.5" x2="976.5" y1="1930.9609" y2="1930.9609"/><polygon fill="#00008B" points="945.5,1926.9609,935.5,1930.9609,945.5,1934.9609,941.5,1930.9609" style="stroke:#00008B;stroke-width:1.0;"/><text fill="#000000" font-family="sans-serif" font-size="13" lengthAdjust="spacing" textLength="286" x="941.5" y="1913.1045">successFailureMessage = "Send to SADB failed"</text><polygon fill="#00008B" points="553.5,1957.3125,543.5,1961.3125,553.5,1965.3125,549.5,1961.3125" style="stroke:#00008B;stroke-width:1.0;"/><line style="stroke:#00008B;stroke-width:1.0;stroke-dasharray:2.0,2.0;" x1="547.5" x2="933.5" y1="1961.3125" y2="1961.3125"/><text fill="#000000" font-family="sans-serif" font-size="13" lengthAdjust="spacing" textLength="174" x="559.5" y="1956.4561">ClientRegistrationError().result</text><line style="stroke:#808080;stroke-width:1.0;stroke-dasharray:2.0,2.0;" x1="474" x2="2913.5" y1="1970.3125" y2="1970.3125"/><text fill="#000000" font-family="sans-serif" font-size="11" font-weight="bold" lengthAdjust="spacing" textLength="72" x="479" y="1981.7314">[Error is null]</text><polygon fill="#00008B" points="2870,2003.5,2880,2007.5,2870,2011.5,2874,2007.5" style="stroke:#00008B;stroke-width:1.0;"/><line style="stroke:#00008B;stroke-width:1.0;" x1="2656" x2="2876" y1="2007.5" y2="2007.5"/><text fill="#000000" font-family="sans-serif" font-size="13" lengthAdjust="spacing" textLength="202" x="2663" y="2002.6436">Submitting all the info to the SADB</text><polygon fill="#00008B" points="553.5,2047.8516,543.5,2051.8516,553.5,2055.8516,549.5,2051.8516" style="stroke:#00008B;stroke-width:1.0;"/><line style="stroke:#00008B;stroke-width:1.0;stroke-dasharray:2.0,2.0;" x1="547.5" x2="933.5" y1="2051.8516" y2="2051.8516"/><text fill="#000000" font-family="sans-serif" font-size="13" lengthAdjust="spacing" textLength="335" x="559.5" y="2046.9951">Sending successfailuremessage based on the result value</text><!--SRC=[xLTBRnit4Bxlhs1zgOH6WkqcEGYmKLco5GMsOqYsaoBjWTeThGYlk5kIAzlzzPqXkIz9TX8WXnvMG98D-N4Utmo7Cx-oKQvDkXR_0ZChO3pBW2ikGmZqWv0PVg-PXdzomAMXKkdZA4rInSPSFPmb-JxKfLZY7mbdgOf0EVWrtpplWKvKccTrt4Jnbt4yV8ZnGqOE-tab3CpNwKFT29cQXcAoSv8c4SXP6ctZjWHUYdXb_eGaIH-3W8S6bmuSEw0E6DSirw02F6z4A38k3Mud0l3V6SH26yMDIAL58d0ZaCC6sA50CNUgqxLG5Uv7ET15BabeYLqsmGgC4h21IIGYNO3Y9gO_0LFVZxVsXua27ZqNUY4Qwl78O_aM5aLDfJOyIQPH8Kuq8NTIbP9u9IcFzxivJF0lYSnje4aBVvKNZvgDcg0vZnRpVB4M1K3h8EA6BxW6z3JBncTsELhKbkT3lwfnEGWeohrJ7y51vmw_AF9uFKGPMBR4v52rgBF5CyjoOuICsPTrmfOYWMxWqRrJ5Gv6I1f4x56O5Nj2XABSreO5AgJzvU26Qqt7Qvk_ALWoL87B7Ps78MYzv2B95LpX9uzH1MPgGWdeX95QXcRAF4a2XZyKxAJlFNvoG0S5HegjXTDE4WxAeyvootWzny-n4AXEjwz0vudfrBSOQO2e6u2Cd6tdJxWL6jJnfAECe_i_OY012pg-wEY6pXTP7x6bIjUsReMfN8gVRNrfsprF1EOByKFAQX7wItROdILkxcADteBKA4htHwdSW3936Vdp52vYf11NwhEhc3RpS0LhVluKGaQxmNVmqqZ28gSssmeEWZebR9UJgRHdV1vz5qC9tebFI8TYK3VucnRd4fuoi0a1f8SPzMoPJGkxWUtpQYkkFyS937CjrB6zfMJCRcL5ysAGeCWyIe9FynYtthY8-k2puGO5yqK2rbOinRtJk2QqLeaT88vxLYrgovKa36E4c87EC8NWwzzUKDXpd5P0hl2jx62E6IxSWhyezZeBkKoxrZGIz-gDksZ4XvsWcVx8DHxPOhtI_sFquprvEOjA6-bPjeQYogQjKocCGEdOfdpuR8bt_5SLG5dAyCsrCIMnFYXtaZUYekAN2WEPiNjenv79U3ek7m9Y5eqkqQzTZ9SLkxneQjggGUEKM1-6-58AyymkqpZ61JJ7hB27YLUC-wtni8zlD1OUB3COYDkqE7DBzdMwtKhcn2LqKTSQ4JBOM4by-6YJcAPALwYg0sy9rnzX3s7W0eD1Zg2IcXR_01HQYWPYx69NNAh8QRGvous1TMPyLGYjR1Q19HofmukfCSEPVS-hFE7LJLk3MQN-iLqzalaMnka-Ya7OHDMxcZ5TzSffUoeMFIjyLkR-t3t9ZoiHsjSC-mX1GfyhvxgsYV7Ns3fL-UrpfhYHFFQNstTYh6h5ICXuv5qlduCy7d1xTVjLipMsa4xtQ-4S4fUNkxQCvF5E4H7IG8o9MhCLuooMxB1s6FGRczDbDliSRphadIcZVWsFHSYscwMgx18lenM43xRrI8lME61smpNNAFo2OvFlHVDmuDFF5ZrDKDj1OXFW3rlhgjF4TKt2RBGb06z1ZlDAgTkYeiM06adi98lQIhbBPPMOTPdNS6EENvvtwa9BBhJUpafAQVBPEcoVG09hlHCTzpoMiGbT7jagySl93k4lbdEop9g5VUxUVk1RBP8BjrshXnejFjMU9s7syaJVfBRvq5gb1L_DBc7jpQREF69KXbnfHokeEy21q_-O-z7d7rPmEw-sysexhxRpQZkljlDgEw-sysexhxRpQZkljlDgEw-sy-h_SLwzIN02kBkwPDXpKV_5Zlh7XyTl-xztBfHW5x1WH-_PuT7Ww71m-8vDvxUCjhj1Pt9pkJbcEiqLfcfaysAHkpJ_Y6MTpMW4MyE0qVywjrTTDZyl5jcvt0YLoZKbpiVxAmTY7r8ppr9ZmU_Vziw4wn3mejrV1MDOSdBdN8OfCO2TJ7Pq_EuukEGopj7v0TQuO8HpAJP60pQz_Wy0]--></g></svg>