<?xml version="1.0" encoding="us-ascii" standalone="no"?><svg xmlns="http://www.w3.org/2000/svg" xmlns:xlink="http://www.w3.org/1999/xlink" contentStyleType="text/css" height="1686px" preserveAspectRatio="none" style="width:2574px;height:1686px;background:#FFFFFF;" version="1.1" viewBox="0 0 2574 1686" width="2574px" zoomAndPan="magnify"><defs/><g><rect fill="none" height="1512.9141" style="stroke:#808080;stroke-width:1.5;" width="2322" x="245" y="102.5703"/><rect fill="none" height="1172.9453" style="stroke:#808080;stroke-width:1.5;" width="2302" x="255" y="257.9766"/><rect fill="none" height="277" style="stroke:#808080;stroke-width:1.5;" width="1671" x="876" y="547.7891"/><rect fill="none" height="124.2422" style="stroke:#808080;stroke-width:1.5;" width="1651" x="886" y="693.5469"/><rect fill="none" height="509.5938" style="stroke:#808080;stroke-width:1.5;" width="1335.5" x="876" y="838.7891"/><rect fill="none" height="224.9453" style="stroke:#808080;stroke-width:1.5;" width="783" x="886" y="1057.25"/><line style="stroke:#000080;stroke-width:0.5;stroke-dasharray:5.0,5.0;" x1="93" x2="93" y1="55.2188" y2="1632.4844"/><line style="stroke:#000080;stroke-width:0.5;stroke-dasharray:5.0,5.0;" x1="289" x2="289" y1="55.2188" y2="1632.4844"/><line style="stroke:#000080;stroke-width:0.5;stroke-dasharray:5.0,5.0;" x1="787" x2="787" y1="55.2188" y2="1632.4844"/><line style="stroke:#000080;stroke-width:0.5;stroke-dasharray:5.0,5.0;" x1="994" x2="994" y1="55.2188" y2="1632.4844"/><line style="stroke:#000080;stroke-width:0.5;stroke-dasharray:5.0,5.0;" x1="1560" x2="1560" y1="55.2188" y2="1632.4844"/><line style="stroke:#000080;stroke-width:0.5;stroke-dasharray:5.0,5.0;" x1="2206" x2="2206" y1="55.2188" y2="1632.4844"/><line style="stroke:#000080;stroke-width:0.5;stroke-dasharray:5.0,5.0;" x1="2417" x2="2417" y1="55.2188" y2="1632.4844"/><rect fill="#E2E2F0" height="31.6094" rx="2.5" ry="2.5" style="stroke:#181818;stroke-width:0.5;" width="177" x="5" y="22.6094"/><text fill="#000000" font-family="sans-serif" font-size="14" lengthAdjust="spacing" textLength="163" x="12" y="44.1426">SADBForwarder Service()</text><rect fill="#E2E2F0" height="31.6094" rx="2.5" ry="2.5" style="stroke:#181818;stroke-width:0.5;" width="177" x="5" y="1631.4844"/><text fill="#000000" font-family="sans-serif" font-size="14" lengthAdjust="spacing" textLength="163" x="12" y="1653.0176">SADBForwarder Service()</text><rect fill="#E2E2F0" height="31.6094" rx="2.5" ry="2.5" style="stroke:#181818;stroke-width:0.5;" width="49" x="265" y="22.6094"/><text fill="#000000" font-family="sans-serif" font-size="14" lengthAdjust="spacing" textLength="31" x="276" y="44.1426">run()</text><rect fill="#E2E2F0" height="31.6094" rx="2.5" ry="2.5" style="stroke:#181818;stroke-width:0.5;" width="49" x="265" y="1631.4844"/><text fill="#000000" font-family="sans-serif" font-size="14" lengthAdjust="spacing" textLength="31" x="276" y="1653.0176">run()</text><rect fill="#E2E2F0" height="49.2188" rx="2.5" ry="2.5" style="stroke:#181818;stroke-width:0.5;" width="197" x="689" y="5"/><text fill="#000000" font-family="sans-serif" font-size="14" lengthAdjust="spacing" textLength="88" x="743.5" y="26.5332">LoadInfoFile()</text><text fill="#000000" font-family="sans-serif" font-size="14" lengthAdjust="spacing" textLength="183" x="696" y="44.1426">[Method in FileToProcess.cs]</text><rect fill="#E2E2F0" height="49.2188" rx="2.5" ry="2.5" style="stroke:#181818;stroke-width:0.5;" width="197" x="689" y="1631.4844"/><text fill="#000000" font-family="sans-serif" font-size="14" lengthAdjust="spacing" textLength="88" x="743.5" y="1653.0176">LoadInfoFile()</text><text fill="#000000" font-family="sans-serif" font-size="14" lengthAdjust="spacing" textLength="183" x="696" y="1670.627">[Method in FileToProcess.cs]</text><rect fill="#E2E2F0" height="49.2188" rx="2.5" ry="2.5" style="stroke:#181818;stroke-width:0.5;" width="197" x="896" y="5"/><text fill="#000000" font-family="sans-serif" font-size="14" lengthAdjust="spacing" textLength="66" x="961.5" y="26.5332">SendFile()</text><text fill="#000000" font-family="sans-serif" font-size="14" lengthAdjust="spacing" textLength="183" x="903" y="44.1426">[Method in FileToProcess.cs]</text><rect fill="#E2E2F0" height="49.2188" rx="2.5" ry="2.5" style="stroke:#181818;stroke-width:0.5;" width="197" x="896" y="1631.4844"/><text fill="#000000" font-family="sans-serif" font-size="14" lengthAdjust="spacing" textLength="66" x="961.5" y="1653.0176">SendFile()</text><text fill="#000000" font-family="sans-serif" font-size="14" lengthAdjust="spacing" textLength="183" x="903" y="1670.627">[Method in FileToProcess.cs]</text><rect fill="#E2E2F0" height="49.2188" rx="2.5" ry="2.5" style="stroke:#181818;stroke-width:0.5;" width="197" x="1462" y="5"/><text fill="#000000" font-family="sans-serif" font-size="14" lengthAdjust="spacing" textLength="115" x="1503" y="26.5332">TransmitToSadb()</text><text fill="#000000" font-family="sans-serif" font-size="14" lengthAdjust="spacing" textLength="183" x="1469" y="44.1426">[Method in FileToProcess.cs]</text><rect fill="#E2E2F0" height="49.2188" rx="2.5" ry="2.5" style="stroke:#181818;stroke-width:0.5;" width="197" x="1462" y="1631.4844"/><text fill="#000000" font-family="sans-serif" font-size="14" lengthAdjust="spacing" textLength="115" x="1503" y="1653.0176">TransmitToSadb()</text><text fill="#000000" font-family="sans-serif" font-size="14" lengthAdjust="spacing" textLength="183" x="1469" y="1670.627">[Method in FileToProcess.cs]</text><rect fill="#E2E2F0" height="31.6094" rx="2.5" ry="2.5" style="stroke:#181818;stroke-width:0.5;" width="183" x="2115" y="22.6094"/><text fill="#000000" font-family="sans-serif" font-size="14" lengthAdjust="spacing" textLength="169" x="2122" y="44.1426">CheckedIfRegProcessing()</text><rect fill="#E2E2F0" height="31.6094" rx="2.5" ry="2.5" style="stroke:#181818;stroke-width:0.5;" width="183" x="2115" y="1631.4844"/><text fill="#000000" font-family="sans-serif" font-size="14" lengthAdjust="spacing" textLength="169" x="2122" y="1653.0176">CheckedIfRegProcessing()</text><rect fill="#E2E2F0" height="31.6094" rx="2.5" ry="2.5" style="stroke:#181818;stroke-width:0.5;" width="219" x="2308" y="22.6094"/><text fill="#000000" font-family="sans-serif" font-size="14" lengthAdjust="spacing" textLength="201" x="2319" y="44.1426">SendMessageToMessageSBS()</text><rect fill="#E2E2F0" height="31.6094" rx="2.5" ry="2.5" style="stroke:#181818;stroke-width:0.5;" width="219" x="2308" y="1631.4844"/><text fill="#000000" font-family="sans-serif" font-size="14" lengthAdjust="spacing" textLength="201" x="2319" y="1653.0176">SendMessageToMessageSBS()</text><polygon fill="#00008B" points="277.5,83.5703,287.5,87.5703,277.5,91.5703,281.5,87.5703" style="stroke:#00008B;stroke-width:1.0;"/><line style="stroke:#00008B;stroke-width:1.0;" x1="93.5" x2="283.5" y1="87.5703" y2="87.5703"/><text fill="#000000" font-family="sans-serif" font-size="13" lengthAdjust="spacing" textLength="172" x="100.5" y="82.7139">Calling run to start the service</text><path d="M245,102.5703 L306,102.5703 L306,110.9219 L296,120.9219 L245,120.9219 L245,102.5703 " fill="#F5F5F5" style="stroke:#808080;stroke-width:1.5;"/><rect fill="none" height="1512.9141" style="stroke:#808080;stroke-width:1.5;" width="2322" x="245" y="102.5703"/><text fill="#000000" font-family="sans-serif" font-size="13" font-weight="bold" lengthAdjust="spacing" textLength="16" x="260" y="117.0654">alt</text><text fill="#000000" font-family="sans-serif" font-size="11" font-weight="bold" lengthAdjust="spacing" textLength="23" x="321" y="115.9893">[try]</text><line style="stroke:#00008B;stroke-width:1.0;" x1="289.5" x2="331.5" y1="143.2734" y2="143.2734"/><line style="stroke:#00008B;stroke-width:1.0;" x1="331.5" x2="331.5" y1="143.2734" y2="156.2734"/><line style="stroke:#00008B;stroke-width:1.0;" x1="290.5" x2="331.5" y1="156.2734" y2="156.2734"/><polygon fill="#00008B" points="300.5,152.2734,290.5,156.2734,300.5,160.2734,296.5,156.2734" style="stroke:#00008B;stroke-width:1.0;"/><text fill="#000000" font-family="sans-serif" font-size="13" lengthAdjust="spacing" textLength="356" x="296.5" y="138.417">intializing the SADBConfig(config = new SADBConfiguration())</text><line style="stroke:#00008B;stroke-width:1.0;" x1="289.5" x2="331.5" y1="186.625" y2="186.625"/><line style="stroke:#00008B;stroke-width:1.0;" x1="331.5" x2="331.5" y1="186.625" y2="199.625"/><line style="stroke:#00008B;stroke-width:1.0;" x1="290.5" x2="331.5" y1="199.625" y2="199.625"/><polygon fill="#00008B" points="300.5,195.625,290.5,199.625,300.5,203.625,296.5,199.625" style="stroke:#00008B;stroke-width:1.0;"/><text fill="#000000" font-family="sans-serif" font-size="13" lengthAdjust="spacing" textLength="292" x="296.5" y="181.7686">Checking for the directory,if not present create one</text><line style="stroke:#00008B;stroke-width:1.0;" x1="289.5" x2="331.5" y1="229.9766" y2="229.9766"/><line style="stroke:#00008B;stroke-width:1.0;" x1="331.5" x2="331.5" y1="229.9766" y2="242.9766"/><line style="stroke:#00008B;stroke-width:1.0;" x1="290.5" x2="331.5" y1="242.9766" y2="242.9766"/><polygon fill="#00008B" points="300.5,238.9766,290.5,242.9766,300.5,246.9766,296.5,242.9766" style="stroke:#00008B;stroke-width:1.0;"/><text fill="#000000" font-family="sans-serif" font-size="13" lengthAdjust="spacing" textLength="391" x="296.5" y="225.1201">intializing  bool sendToSADB = config.SendToSADB,from the config</text><path d="M255,257.9766 L316,257.9766 L316,266.3281 L306,276.3281 L255,276.3281 L255,257.9766 " fill="#F5F5F5" style="stroke:#808080;stroke-width:1.5;"/><rect fill="none" height="1172.9453" style="stroke:#808080;stroke-width:1.5;" width="2302" x="255" y="257.9766"/><text fill="#000000" font-family="sans-serif" font-size="13" font-weight="bold" lengthAdjust="spacing" textLength="16" x="270" y="272.4717">alt</text><text fill="#000000" font-family="sans-serif" font-size="11" font-weight="bold" lengthAdjust="spacing" textLength="108" x="331" y="271.3955">[SendToSADB=true]</text><line style="stroke:#00008B;stroke-width:1.0;" x1="289.5" x2="331.5" y1="298.6797" y2="298.6797"/><line style="stroke:#00008B;stroke-width:1.0;" x1="331.5" x2="331.5" y1="298.6797" y2="311.6797"/><line style="stroke:#00008B;stroke-width:1.0;" x1="290.5" x2="331.5" y1="311.6797" y2="311.6797"/><polygon fill="#00008B" points="300.5,307.6797,290.5,311.6797,300.5,315.6797,296.5,311.6797" style="stroke:#00008B;stroke-width:1.0;"/><text fill="#000000" font-family="sans-serif" font-size="13" lengthAdjust="spacing" textLength="272" x="296.5" y="293.8232">Extracting all the "**.xml" file from the directory</text><line style="stroke:#00008B;stroke-width:1.0;" x1="289.5" x2="331.5" y1="342.0313" y2="342.0313"/><line style="stroke:#00008B;stroke-width:1.0;" x1="331.5" x2="331.5" y1="342.0313" y2="355.0313"/><line style="stroke:#00008B;stroke-width:1.0;" x1="290.5" x2="331.5" y1="355.0313" y2="355.0313"/><polygon fill="#00008B" points="300.5,351.0313,290.5,355.0313,300.5,359.0313,296.5,355.0313" style="stroke:#00008B;stroke-width:1.0;"/><text fill="#000000" font-family="sans-serif" font-size="13" lengthAdjust="spacing" textLength="158" x="296.5" y="337.1748">Looping through all the files</text><polygon fill="#00008B" points="775.5,381.3828,785.5,385.3828,775.5,389.3828,779.5,385.3828" style="stroke:#00008B;stroke-width:1.0;"/><line style="stroke:#00008B;stroke-width:1.0;" x1="289.5" x2="781.5" y1="385.3828" y2="385.3828"/><text fill="#000000" font-family="sans-serif" font-size="13" lengthAdjust="spacing" textLength="255" x="296.5" y="380.5264">if process if true then call this to load the file</text><polygon fill="#00008B" points="300.5,411.7344,290.5,415.7344,300.5,419.7344,296.5,415.7344" style="stroke:#00008B;stroke-width:1.0;"/><line style="stroke:#00008B;stroke-width:1.0;stroke-dasharray:2.0,2.0;" x1="294.5" x2="786.5" y1="415.7344" y2="415.7344"/><text fill="#000000" font-family="sans-serif" font-size="13" lengthAdjust="spacing" textLength="175" x="306.5" y="410.8779">returning the response as bool</text><polygon fill="#00008B" points="982.5,442.0859,992.5,446.0859,982.5,450.0859,986.5,446.0859" style="stroke:#00008B;stroke-width:1.0;"/><line style="stroke:#00008B;stroke-width:1.0;" x1="289.5" x2="988.5" y1="446.0859" y2="446.0859"/><text fill="#000000" font-family="sans-serif" font-size="13" lengthAdjust="spacing" textLength="191" x="296.5" y="441.2295">calling function to submit to sadb</text><line style="stroke:#00008B;stroke-width:1.0;" x1="994.5" x2="1036.5" y1="476.4375" y2="476.4375"/><line style="stroke:#00008B;stroke-width:1.0;" x1="1036.5" x2="1036.5" y1="476.4375" y2="489.4375"/><line style="stroke:#00008B;stroke-width:1.0;" x1="995.5" x2="1036.5" y1="489.4375" y2="489.4375"/><polygon fill="#00008B" points="1005.5,485.4375,995.5,489.4375,1005.5,493.4375,1001.5,489.4375" style="stroke:#00008B;stroke-width:1.0;"/><text fill="#000000" font-family="sans-serif" font-size="13" lengthAdjust="spacing" textLength="166" x="1001.5" y="471.5811">intializing submitSBS = true;</text><line style="stroke:#00008B;stroke-width:1.0;" x1="994.5" x2="1036.5" y1="519.7891" y2="519.7891"/><line style="stroke:#00008B;stroke-width:1.0;" x1="1036.5" x2="1036.5" y1="519.7891" y2="532.7891"/><line style="stroke:#00008B;stroke-width:1.0;" x1="995.5" x2="1036.5" y1="532.7891" y2="532.7891"/><polygon fill="#00008B" points="1005.5,528.7891,995.5,532.7891,1005.5,536.7891,1001.5,532.7891" style="stroke:#00008B;stroke-width:1.0;"/><text fill="#000000" font-family="sans-serif" font-size="13" lengthAdjust="spacing" textLength="387" x="1001.5" y="514.9326">Extracting the filedatainfo,intialising SADB configuration,retry count</text><path d="M876,547.7891 L937,547.7891 L937,556.1406 L927,566.1406 L876,566.1406 L876,547.7891 " fill="#F5F5F5" style="stroke:#808080;stroke-width:1.5;"/><rect fill="none" height="277" style="stroke:#808080;stroke-width:1.5;" width="1671" x="876" y="547.7891"/><text fill="#000000" font-family="sans-serif" font-size="13" font-weight="bold" lengthAdjust="spacing" textLength="16" x="891" y="562.2842">alt</text><text fill="#000000" font-family="sans-serif" font-size="11" font-weight="bold" lengthAdjust="spacing" textLength="520" x="952" y="561.208">[retryCount == 1 || retryCount == (config.RetryThreshold - 1)) &amp;&amp; config.SendErrorMessageSBS]</text><line style="stroke:#00008B;stroke-width:1.0;" x1="994.5" x2="1036.5" y1="588.4922" y2="588.4922"/><line style="stroke:#00008B;stroke-width:1.0;" x1="1036.5" x2="1036.5" y1="588.4922" y2="601.4922"/><line style="stroke:#00008B;stroke-width:1.0;" x1="995.5" x2="1036.5" y1="601.4922" y2="601.4922"/><polygon fill="#00008B" points="1005.5,597.4922,995.5,601.4922,1005.5,605.4922,1001.5,601.4922" style="stroke:#00008B;stroke-width:1.0;"/><text fill="#000000" font-family="sans-serif" font-size="13" lengthAdjust="spacing" textLength="227" x="1001.5" y="583.6357">validating and adding attribute to xmlfile</text><polygon fill="#00008B" points="2194.5,644.1953,2204.5,648.1953,2194.5,652.1953,2198.5,648.1953" style="stroke:#00008B;stroke-width:1.0;"/><line style="stroke:#00008B;stroke-width:1.0;" x1="994.5" x2="2200.5" y1="648.1953" y2="648.1953"/><text fill="#000000" font-family="sans-serif" font-size="13" lengthAdjust="spacing" textLength="233" x="1001.5" y="626.9873">Calling to check the registration process</text><text fill="#000000" font-family="sans-serif" font-size="13" lengthAdjust="spacing" textLength="4" x="1001.5" y="643.3389">&#160;</text><text fill="#000000" font-family="sans-serif" font-size="13" font-weight="bold" lengthAdjust="spacing" textLength="69" x="1005.5" y="643.3389">submitSBS</text><text fill="#000000" font-family="sans-serif" font-size="13" lengthAdjust="spacing" textLength="419" x="1078.5" y="643.3389">= CheckedIfRegProcessing(xmlfile.client_osgdid, dataFileInfo.FullName);</text><polygon fill="#00008B" points="1005.5,674.5469,995.5,678.5469,1005.5,682.5469,1001.5,678.5469" style="stroke:#00008B;stroke-width:1.0;"/><line style="stroke:#00008B;stroke-width:1.0;stroke-dasharray:2.0,2.0;" x1="999.5" x2="2205.5" y1="678.5469" y2="678.5469"/><text fill="#000000" font-family="sans-serif" font-size="13" lengthAdjust="spacing" textLength="146" x="1011.5" y="673.6904">returning bool as reponse</text><path d="M886,693.5469 L947,693.5469 L947,701.8984 L937,711.8984 L886,711.8984 L886,693.5469 " fill="#F5F5F5" style="stroke:#808080;stroke-width:1.5;"/><rect fill="none" height="124.2422" style="stroke:#808080;stroke-width:1.5;" width="1651" x="886" y="693.5469"/><text fill="#000000" font-family="sans-serif" font-size="13" font-weight="bold" lengthAdjust="spacing" textLength="16" x="901" y="708.042">alt</text><text fill="#000000" font-family="sans-serif" font-size="11" font-weight="bold" lengthAdjust="spacing" textLength="97" x="962" y="706.9658">[submitSBS=true]</text><polygon fill="#00008B" points="2405.5,730.25,2415.5,734.25,2405.5,738.25,2409.5,734.25" style="stroke:#00008B;stroke-width:1.0;"/><line style="stroke:#00008B;stroke-width:1.0;" x1="994.5" x2="2411.5" y1="734.25" y2="734.25"/><text fill="#000000" font-family="sans-serif" font-size="13" lengthAdjust="spacing" textLength="234" x="1001.5" y="729.3936">Sending all detailed as message to SBS</text><line style="stroke:#808080;stroke-width:1.0;stroke-dasharray:2.0,2.0;" x1="886" x2="2537" y1="743.25" y2="743.25"/><text fill="#000000" font-family="sans-serif" font-size="11" font-weight="bold" lengthAdjust="spacing" textLength="62" x="891" y="754.6689">[exception]</text><line style="stroke:#00008B;stroke-width:1.0;" x1="994.5" x2="1036.5" y1="796.7891" y2="796.7891"/><line style="stroke:#00008B;stroke-width:1.0;" x1="1036.5" x2="1036.5" y1="796.7891" y2="809.7891"/><line style="stroke:#00008B;stroke-width:1.0;" x1="995.5" x2="1036.5" y1="809.7891" y2="809.7891"/><polygon fill="#00008B" points="1005.5,805.7891,995.5,809.7891,1005.5,813.7891,1001.5,809.7891" style="stroke:#00008B;stroke-width:1.0;"/><text fill="#000000" font-family="sans-serif" font-size="13" lengthAdjust="spacing" textLength="97" x="1001.5" y="775.5811">logging the error:</text><text fill="#000000" font-family="sans-serif" font-size="13" lengthAdjust="spacing" textLength="423" x="1001.5" y="791.9326">An exception occured when attempting to send an error message to SBS</text><path d="M876,838.7891 L937,838.7891 L937,847.1406 L927,857.1406 L876,857.1406 L876,838.7891 " fill="#F5F5F5" style="stroke:#808080;stroke-width:1.5;"/><rect fill="none" height="509.5938" style="stroke:#808080;stroke-width:1.5;" width="1335.5" x="876" y="838.7891"/><text fill="#000000" font-family="sans-serif" font-size="13" font-weight="bold" lengthAdjust="spacing" textLength="16" x="891" y="853.2842">alt</text><text fill="#000000" font-family="sans-serif" font-size="11" font-weight="bold" lengthAdjust="spacing" textLength="285" x="952" y="852.208">[If file Exist and retryCount &lt; config.RetryThreshold]</text><polygon fill="#00008B" points="1548.5,875.4922,1558.5,879.4922,1548.5,883.4922,1552.5,879.4922" style="stroke:#00008B;stroke-width:1.0;"/><line style="stroke:#00008B;stroke-width:1.0;" x1="994.5" x2="1554.5" y1="879.4922" y2="879.4922"/><text fill="#000000" font-family="sans-serif" font-size="13" lengthAdjust="spacing" textLength="458" x="1001.5" y="874.6357">Call this function to validate the attribute from the file,and sending to sadb using</text><text fill="#000000" font-family="sans-serif" font-size="13" font-weight="bold" lengthAdjust="spacing" textLength="30" x="1463.5" y="874.6357">https</text><text fill="#000000" font-family="sans-serif" font-size="13" lengthAdjust="spacing" textLength="46" x="1497.5" y="874.6357">protocol</text><line style="stroke:#00008B;stroke-width:1.0;" x1="1560.5" x2="1602.5" y1="909.8438" y2="909.8438"/><line style="stroke:#00008B;stroke-width:1.0;" x1="1602.5" x2="1602.5" y1="909.8438" y2="922.8438"/><line style="stroke:#00008B;stroke-width:1.0;" x1="1561.5" x2="1602.5" y1="922.8438" y2="922.8438"/><polygon fill="#00008B" points="1571.5,918.8438,1561.5,922.8438,1571.5,926.8438,1567.5,922.8438" style="stroke:#00008B;stroke-width:1.0;"/><text fill="#000000" font-family="sans-serif" font-size="13" lengthAdjust="spacing" textLength="213" x="1567.5" y="904.9873">validating  and intialising the attribute</text><line style="stroke:#00008B;stroke-width:1.0;" x1="1560.5" x2="1602.5" y1="969.5469" y2="969.5469"/><line style="stroke:#00008B;stroke-width:1.0;" x1="1602.5" x2="1602.5" y1="969.5469" y2="982.5469"/><line style="stroke:#00008B;stroke-width:1.0;" x1="1561.5" x2="1602.5" y1="982.5469" y2="982.5469"/><polygon fill="#00008B" points="1571.5,978.5469,1561.5,982.5469,1571.5,986.5469,1567.5,982.5469" style="stroke:#00008B;stroke-width:1.0;"/><text fill="#000000" font-family="sans-serif" font-size="13" lengthAdjust="spacing" textLength="86" x="1567.5" y="948.3389">creating the uri</text><text fill="#000000" font-family="sans-serif" font-size="13" lengthAdjust="spacing" textLength="4" x="1567.5" y="964.6904">&#160;</text><text fill="#000000" font-family="sans-serif" font-size="13" font-weight="bold" lengthAdjust="spacing" textLength="161" x="1571.5" y="964.6904">StringUtils.BuildSadbUri()</text><text fill="#000000" font-family="sans-serif" font-size="13" lengthAdjust="spacing" textLength="156" x="1736.5" y="964.6904">with all required parameter.</text><line style="stroke:#00008B;stroke-width:1.0;" x1="1560.5" x2="1602.5" y1="1029.25" y2="1029.25"/><line style="stroke:#00008B;stroke-width:1.0;" x1="1602.5" x2="1602.5" y1="1029.25" y2="1042.25"/><line style="stroke:#00008B;stroke-width:1.0;" x1="1561.5" x2="1602.5" y1="1042.25" y2="1042.25"/><polygon fill="#00008B" points="1571.5,1038.25,1561.5,1042.25,1571.5,1046.25,1567.5,1042.25" style="stroke:#00008B;stroke-width:1.0;"/><text fill="#000000" font-family="sans-serif" font-size="13" lengthAdjust="spacing" textLength="177" x="1567.5" y="1008.042">send all info to SADB using url</text><text fill="#000000" font-family="sans-serif" font-size="13" lengthAdjust="spacing" textLength="628" x="1571.5" y="1024.3936">HP.Isee.Core.Sender.Sender.SendHttps(data, uri, config.ContentType, xmlfile.MessageType, config.Timeout)</text><path d="M886,1057.25 L947,1057.25 L947,1065.6016 L937,1075.6016 L886,1075.6016 L886,1057.25 " fill="#F5F5F5" style="stroke:#808080;stroke-width:1.5;"/><rect fill="none" height="224.9453" style="stroke:#808080;stroke-width:1.5;" width="783" x="886" y="1057.25"/><text fill="#000000" font-family="sans-serif" font-size="13" font-weight="bold" lengthAdjust="spacing" textLength="16" x="901" y="1071.7451">alt</text><text fill="#000000" font-family="sans-serif" font-size="11" font-weight="bold" lengthAdjust="spacing" textLength="336" x="962" y="1070.6689">[All attribute is varified and info has been submitted to SADB]</text><polygon fill="#00008B" points="1005.5,1093.9531,995.5,1097.9531,1005.5,1101.9531,1001.5,1097.9531" style="stroke:#00008B;stroke-width:1.0;"/><line style="stroke:#00008B;stroke-width:1.0;stroke-dasharray:2.0,2.0;" x1="999.5" x2="1559.5" y1="1097.9531" y2="1097.9531"/><text fill="#000000" font-family="sans-serif" font-size="13" lengthAdjust="spacing" textLength="77" x="1011.5" y="1093.0967">return as true</text><line style="stroke:#00008B;stroke-width:1.0;" x1="994.5" x2="1036.5" y1="1128.3047" y2="1128.3047"/><line style="stroke:#00008B;stroke-width:1.0;" x1="1036.5" x2="1036.5" y1="1128.3047" y2="1141.3047"/><line style="stroke:#00008B;stroke-width:1.0;" x1="995.5" x2="1036.5" y1="1141.3047" y2="1141.3047"/><polygon fill="#00008B" points="1005.5,1137.3047,995.5,1141.3047,1005.5,1145.3047,1001.5,1141.3047" style="stroke:#00008B;stroke-width:1.0;"/><text fill="#000000" font-family="sans-serif" font-size="13" lengthAdjust="spacing" textLength="230" x="1001.5" y="1123.4482">deleting the fileinfo(dataFileInfo.Delete())</text><line style="stroke:#00008B;stroke-width:1.0;" x1="994.5" x2="1036.5" y1="1171.6563" y2="1171.6563"/><line style="stroke:#00008B;stroke-width:1.0;" x1="1036.5" x2="1036.5" y1="1171.6563" y2="1184.6563"/><line style="stroke:#00008B;stroke-width:1.0;" x1="995.5" x2="1036.5" y1="1184.6563" y2="1184.6563"/><polygon fill="#00008B" points="1005.5,1180.6563,995.5,1184.6563,1005.5,1188.6563,1001.5,1184.6563" style="stroke:#00008B;stroke-width:1.0;"/><text fill="#000000" font-family="sans-serif" font-size="13" lengthAdjust="spacing" textLength="252" x="1001.5" y="1166.7998">deleting the metadata(metaFileInfo.Delete())</text><line style="stroke:#808080;stroke-width:1.0;stroke-dasharray:2.0,2.0;" x1="886" x2="1669" y1="1193.6563" y2="1193.6563"/><text fill="#000000" font-family="sans-serif" font-size="11" font-weight="bold" lengthAdjust="spacing" textLength="396" x="891" y="1205.0752">[ServiceUnavailableException,ServiceRequestException,other exception]</text><polygon fill="#00008B" points="1005.5,1226.8438,995.5,1230.8438,1005.5,1234.8438,1001.5,1230.8438" style="stroke:#00008B;stroke-width:1.0;"/><line style="stroke:#00008B;stroke-width:1.0;stroke-dasharray:2.0,2.0;" x1="999.5" x2="1559.5" y1="1230.8438" y2="1230.8438"/><text fill="#000000" font-family="sans-serif" font-size="13" lengthAdjust="spacing" textLength="64" x="1011.5" y="1225.9873">return false</text><line style="stroke:#00008B;stroke-width:1.0;" x1="994.5" x2="1036.5" y1="1261.1953" y2="1261.1953"/><line style="stroke:#00008B;stroke-width:1.0;" x1="1036.5" x2="1036.5" y1="1261.1953" y2="1274.1953"/><line style="stroke:#00008B;stroke-width:1.0;" x1="995.5" x2="1036.5" y1="1274.1953" y2="1274.1953"/><polygon fill="#00008B" points="1005.5,1270.1953,995.5,1274.1953,1005.5,1278.1953,1001.5,1274.1953" style="stroke:#00008B;stroke-width:1.0;"/><text fill="#000000" font-family="sans-serif" font-size="13" lengthAdjust="spacing" textLength="320" x="1001.5" y="1256.3389">increasing the retry count,and saving that to the xml file</text><line style="stroke:#808080;stroke-width:1.0;stroke-dasharray:2.0,2.0;" x1="876" x2="2211.5" y1="1290.1953" y2="1290.1953"/><text fill="#000000" font-family="sans-serif" font-size="11" font-weight="bold" lengthAdjust="spacing" textLength="62" x="881" y="1301.6143">[exception]</text><line style="stroke:#00008B;stroke-width:1.0;" x1="994.5" x2="1036.5" y1="1327.3828" y2="1327.3828"/><line style="stroke:#00008B;stroke-width:1.0;" x1="1036.5" x2="1036.5" y1="1327.3828" y2="1340.3828"/><line style="stroke:#00008B;stroke-width:1.0;" x1="995.5" x2="1036.5" y1="1340.3828" y2="1340.3828"/><polygon fill="#00008B" points="1005.5,1336.3828,995.5,1340.3828,1005.5,1344.3828,1001.5,1340.3828" style="stroke:#00008B;stroke-width:1.0;"/><text fill="#000000" font-family="sans-serif" font-size="13" lengthAdjust="spacing" textLength="423" x="1001.5" y="1322.5264">Do the logging,go for next try and delete the previous datafile and metafile</text><line style="stroke:#808080;stroke-width:1.0;stroke-dasharray:2.0,2.0;" x1="255" x2="2557" y1="1356.3828" y2="1356.3828"/><text fill="#000000" font-family="sans-serif" font-size="11" font-weight="bold" lengthAdjust="spacing" textLength="62" x="260" y="1367.8018">[exception]</text><line style="stroke:#00008B;stroke-width:1.0;" x1="289.5" x2="331.5" y1="1409.9219" y2="1409.9219"/><line style="stroke:#00008B;stroke-width:1.0;" x1="331.5" x2="331.5" y1="1409.9219" y2="1422.9219"/><line style="stroke:#00008B;stroke-width:1.0;" x1="290.5" x2="331.5" y1="1422.9219" y2="1422.9219"/><polygon fill="#00008B" points="300.5,1418.9219,290.5,1422.9219,300.5,1426.9219,296.5,1422.9219" style="stroke:#00008B;stroke-width:1.0;"/><text fill="#000000" font-family="sans-serif" font-size="13" lengthAdjust="spacing" textLength="65" x="296.5" y="1388.7139">Do logging:</text><text fill="#000000" font-family="sans-serif" font-size="13" lengthAdjust="spacing" textLength="476" x="304.5" y="1405.0654">log.InfoFormat("Service stop to send data to SADB as SendToSADB set to false");</text><line style="stroke:#808080;stroke-width:1.0;stroke-dasharray:2.0,2.0;" x1="245" x2="2567" y1="1438.9219" y2="1438.9219"/><text fill="#000000" font-family="sans-serif" font-size="11" font-weight="bold" lengthAdjust="spacing" textLength="163" x="250" y="1450.3408">[DirectoryNotFoundException]</text><line style="stroke:#00008B;stroke-width:1.0;" x1="289.5" x2="331.5" y1="1476.1094" y2="1476.1094"/><line style="stroke:#00008B;stroke-width:1.0;" x1="331.5" x2="331.5" y1="1476.1094" y2="1489.1094"/><line style="stroke:#00008B;stroke-width:1.0;" x1="290.5" x2="331.5" y1="1489.1094" y2="1489.1094"/><polygon fill="#00008B" points="300.5,1485.1094,290.5,1489.1094,300.5,1493.1094,296.5,1489.1094" style="stroke:#00008B;stroke-width:1.0;"/><text fill="#000000" font-family="sans-serif" font-size="13" lengthAdjust="spacing" textLength="215" x="296.5" y="1471.2529">logging the error as diretory not found</text><line style="stroke:#808080;stroke-width:1.0;stroke-dasharray:2.0,2.0;" x1="245" x2="2567" y1="1498.1094" y2="1498.1094"/><text fill="#000000" font-family="sans-serif" font-size="11" font-weight="bold" lengthAdjust="spacing" textLength="72" x="250" y="1509.5283">[IOException]</text><line style="stroke:#00008B;stroke-width:1.0;" x1="289.5" x2="331.5" y1="1535.2969" y2="1535.2969"/><line style="stroke:#00008B;stroke-width:1.0;" x1="331.5" x2="331.5" y1="1535.2969" y2="1548.2969"/><line style="stroke:#00008B;stroke-width:1.0;" x1="290.5" x2="331.5" y1="1548.2969" y2="1548.2969"/><polygon fill="#00008B" points="300.5,1544.2969,290.5,1548.2969,300.5,1552.2969,296.5,1548.2969" style="stroke:#00008B;stroke-width:1.0;"/><text fill="#000000" font-family="sans-serif" font-size="13" lengthAdjust="spacing" textLength="288" x="296.5" y="1530.4404">logging the error as exception reading from the file</text><line style="stroke:#808080;stroke-width:1.0;stroke-dasharray:2.0,2.0;" x1="245" x2="2567" y1="1557.2969" y2="1557.2969"/><text fill="#000000" font-family="sans-serif" font-size="11" font-weight="bold" lengthAdjust="spacing" textLength="61" x="250" y="1568.7158">[Exception]</text><line style="stroke:#00008B;stroke-width:1.0;" x1="289.5" x2="331.5" y1="1594.4844" y2="1594.4844"/><line style="stroke:#00008B;stroke-width:1.0;" x1="331.5" x2="331.5" y1="1594.4844" y2="1607.4844"/><line style="stroke:#00008B;stroke-width:1.0;" x1="290.5" x2="331.5" y1="1607.4844" y2="1607.4844"/><polygon fill="#00008B" points="300.5,1603.4844,290.5,1607.4844,300.5,1611.4844,296.5,1607.4844" style="stroke:#00008B;stroke-width:1.0;"/><text fill="#000000" font-family="sans-serif" font-size="13" lengthAdjust="spacing" textLength="111" x="296.5" y="1589.6279">unknown exception</text><!--SRC=[ZLPjJniv4FwUNs7nePTK8QT-vG094g18j5SHqEbqd4xExkp6YjVUixq9LFtndHbxNnAen0V0sFFwp3Cp-vkODpxOIdq74TOWP5s3TD9aCF8RPMeyLyB3_mtWrOLpTZUtsZgna6vpgPktfEvKWJy6BgtBmKNnhtBxyeReZRDDFPIxSVBNSZBRb7WmUPJzQwq2B2kx6GPXRDXpJ77UM9s3kRVveTo1mJjLhiFVeBNTZKOZb0igKxKqGHmjBnQNrzRj95aMIt1RbS5uSYIa5rxcgtrfuHgJ7jt-ovsL-QqfxBNIgFva_la2OMrpeOoWgmVxpTaCl9zb_b_MryMU0Om4JFvkRN-e_O2bzPKA3tQ9KR_BHl1YFuVv6h8DvBV5FPH9M9aovPlL1zA20lw2Ch94u-cml5osu5K8DI5uVEvEvb9hD4NmYM253sY8MUaZu2EfyN_tCd8ahKnGKgllf452LAEvDOKgnnd_4MV2m6vmtpWPbCNIJA85peJK2wm-cSYLWonOzp9L1L54r0uyO1gP0nb0M0ElVOkLjHf3D3cYYhxGRVG_MtPtqyBPYbt4fn6dqh-V1OUz90GRlteEJcQ1R2CWh7NqyUFikT97ei0QYSvO5s-hUcTj7V50NfVhJf_KV1JInGacLyV22JoIQn8o8elYoXFw6gdQwQAgBex9WuFGEDDYZl3KrdYWKX8CqOKlJh9Kog8n6M7EzMnMI3q-KSi8f2VB3i6CCiWFH942-wCN6y3IXfNB81MsqpIP829olHFCgU1J3Dgzu5rZmWWD4lPyDQSRSNOcFeaVFmwk4ebcztJxiCPCrpX7nB7uD9c83n-6DRx2kUXwQlSXRp4cZ94hQN8XyvoF8JYrQf1F20LMDG7CIbdTTG4-PaJG17IfV8ZfjCLxCk9qTTuXTlhxwXnH-qLx9Z-pJ2iaz7_MbxdAfu8GfBwdeJIxRhJ-AYkO4EhOoiUSH5zn9ZeDDU2Yan11sKNGiZZbNvqGE2sDSy1QOSd8G1MneXGZNW8qaWYUCwWfmzv6SQ9jMROr1mBwvCbSc5vMs2nh7DhT4OKHMwZgaF2ZfaJaezvRNaq-QdydNjmMiSUkdX5lhjg05gVYJLAaWWVFjOiTD2H-ea7Qi5trkpOcXrDovHDUgKL4muJ68gz3g3qN66iVRCQT5Zpx792Cuntsmfx3NeN7MVlUE1MPj4GvKpu6fVtiib4wfntnwDHumfvtAiI1ud0hAqASLoa4SBFUTC8SnQWn6MlgnvX9upIw-lnjTki1PdFhWFi73Gp-VAPSnqJCASKsRJ776HwGkWylDKpRjfcrcuKla-23gi0sOT8NzGB3wN77wcobKuKYCZ9W6EYQ9XWWWoAR0xwbs6DkWrRWhHYPdZYQWuQzmKGcntkzjI0HeDNpjXRYA4bXJ8StjRX5qgV7ev5Rx2Qvqd3LDi8qlTtJHvCF_Rr5-swlkGxoAQJsC9p7n0_Vp_XkU4QIocryaZpBIGIh4TT4rqsl-ZdPNaI5rDJJqlBkDV3CYvtBmR34Ni7rkrMsyJock2r9W11ACvESlNB5ct1XMoSuBmITP_pXPLqbm_WeOONV6BRk9WLvwHYBHUxtCxvpiepK4Sv7pf8zBzeT_DM6Q_gOlEf3uKXU3J0oJPkRbFWheo2rPExsptVfz-CFIyKpOs-Q96E7fXgpCNOt69wSnqy0]--></g></svg>