<?xml version="1.0" encoding="us-ascii" standalone="no"?><svg xmlns="http://www.w3.org/2000/svg" xmlns:xlink="http://www.w3.org/1999/xlink" contentStyleType="text/css" height="2225px" preserveAspectRatio="none" style="width:2950px;height:2225px;background:#FFFFFF;" version="1.1" viewBox="0 0 2950 2225" width="2950px" zoomAndPan="magnify"><defs/><g><rect fill="none" height="64.5391" style="stroke:#808080;stroke-width:1.5;" width="916.5" x="179" y="203.6641"/><rect fill="none" height="64.5391" style="stroke:#808080;stroke-width:1.5;" width="916.5" x="179" y="282.2031"/><rect fill="none" height="64.5391" style="stroke:#808080;stroke-width:1.5;" width="916.5" x="179" y="421.4453"/><rect fill="none" height="64.5391" style="stroke:#808080;stroke-width:1.5;" width="916.5" x="179" y="543.3359"/><rect fill="none" height="64.5391" style="stroke:#808080;stroke-width:1.5;" width="916.5" x="179" y="665.2266"/><rect fill="none" height="64.5391" style="stroke:#808080;stroke-width:1.5;" width="916.5" x="179" y="804.4688"/><rect fill="none" height="64.5391" style="stroke:#808080;stroke-width:1.5;" width="916.5" x="179" y="943.7109"/><rect fill="none" height="64.5391" style="stroke:#808080;stroke-width:1.5;" width="916.5" x="179" y="1082.9531"/><rect fill="none" height="64.5391" style="stroke:#808080;stroke-width:1.5;" width="916.5" x="179" y="1222.1953"/><rect fill="none" height="110.7266" style="stroke:#808080;stroke-width:1.5;" width="916.5" x="179" y="1361.4375"/><rect fill="none" height="124.2422" style="stroke:#808080;stroke-width:1.5;" width="1271.5" x="179" y="1545.8672"/><rect fill="none" height="442.7266" style="stroke:#808080;stroke-width:1.5;" width="2785.5" x="159" y="1684.1094"/><rect fill="none" height="349.6719" style="stroke:#808080;stroke-width:1.5;" width="2765.5" x="169" y="1770.1641"/><rect fill="none" height="107.8906" style="stroke:#808080;stroke-width:1.5;" width="1161.5" x="179" y="1945.7578"/><line style="stroke:#000080;stroke-width:0.5;stroke-dasharray:5.0,5.0;" x1="38" x2="38" y1="82.6094" y2="2143.8359"/><line style="stroke:#000080;stroke-width:0.5;stroke-dasharray:5.0,5.0;" x1="275" x2="275" y1="82.6094" y2="2143.8359"/><line style="stroke:#000080;stroke-width:0.5;stroke-dasharray:5.0,5.0;" x1="1023.5" x2="1023.5" y1="82.6094" y2="2143.8359"/><line style="stroke:#000080;stroke-width:0.5;stroke-dasharray:5.0,5.0;" x1="1659.5" x2="1659.5" y1="82.6094" y2="2143.8359"/><line style="stroke:#000080;stroke-width:0.5;stroke-dasharray:5.0,5.0;" x1="1867.5" x2="1867.5" y1="82.6094" y2="2143.8359"/><line style="stroke:#000080;stroke-width:0.5;stroke-dasharray:5.0,5.0;" x1="2092.5" x2="2092.5" y1="82.6094" y2="2143.8359"/><line style="stroke:#000080;stroke-width:0.5;stroke-dasharray:5.0,5.0;" x1="2273.5" x2="2273.5" y1="82.6094" y2="2143.8359"/><line style="stroke:#000080;stroke-width:0.5;stroke-dasharray:5.0,5.0;" x1="2450.5" x2="2450.5" y1="82.6094" y2="2143.8359"/><line style="stroke:#000080;stroke-width:0.5;stroke-dasharray:5.0,5.0;" x1="2580.5" x2="2580.5" y1="82.6094" y2="2143.8359"/><line style="stroke:#000080;stroke-width:0.5;stroke-dasharray:5.0,5.0;" x1="2695.5" x2="2695.5" y1="82.6094" y2="2143.8359"/><line style="stroke:#000080;stroke-width:0.5;stroke-dasharray:5.0,5.0;" x1="2851.5" x2="2851.5" y1="82.6094" y2="2143.8359"/><text fill="#000000" font-family="sans-serif" font-size="14" lengthAdjust="spacing" textLength="61" x="5" y="79.5332">Customer</text><ellipse cx="38.5" cy="13.5" fill="#E2E2F0" rx="8" ry="8" style="stroke:#181818;stroke-width:0.5;"/><path d="M38.5,21.5 L38.5,48.5 M25.5,29.5 L51.5,29.5 M38.5,48.5 L25.5,63.5 M38.5,48.5 L51.5,63.5 " fill="none" style="stroke:#181818;stroke-width:0.5;"/><text fill="#000000" font-family="sans-serif" font-size="14" lengthAdjust="spacing" textLength="61" x="5" y="2157.3691">Customer</text><ellipse cx="38.5" cy="2168.9453" fill="#E2E2F0" rx="8" ry="8" style="stroke:#181818;stroke-width:0.5;"/><path d="M38.5,2176.9453 L38.5,2203.9453 M25.5,2184.9453 L51.5,2184.9453 M38.5,2203.9453 L25.5,2218.9453 M38.5,2203.9453 L51.5,2218.9453 " fill="none" style="stroke:#181818;stroke-width:0.5;"/><rect fill="#E2E2F0" height="31.6094" rx="2.5" ry="2.5" style="stroke:#181818;stroke-width:0.5;" width="173" x="189" y="50"/><text fill="#000000" font-family="sans-serif" font-size="14" lengthAdjust="spacing" textLength="159" x="196" y="71.5332">StatsBridgeRegistration()</text><rect fill="#E2E2F0" height="31.6094" rx="2.5" ry="2.5" style="stroke:#181818;stroke-width:0.5;" width="173" x="189" y="2142.8359"/><text fill="#000000" font-family="sans-serif" font-size="14" lengthAdjust="spacing" textLength="159" x="196" y="2164.3691">StatsBridgeRegistration()</text><rect fill="#E2E2F0" height="31.6094" rx="2.5" ry="2.5" style="stroke:#181818;stroke-width:0.5;" width="124" x="961.5" y="50"/><text fill="#000000" font-family="sans-serif" font-size="14" lengthAdjust="spacing" textLength="106" x="972.5" y="71.5332">RegisterDevice()</text><rect fill="#E2E2F0" height="31.6094" rx="2.5" ry="2.5" style="stroke:#181818;stroke-width:0.5;" width="124" x="961.5" y="2142.8359"/><text fill="#000000" font-family="sans-serif" font-size="14" lengthAdjust="spacing" textLength="106" x="972.5" y="2164.3691">RegisterDevice()</text><rect fill="#E2E2F0" height="31.6094" rx="2.5" ry="2.5" style="stroke:#181818;stroke-width:0.5;" width="150" x="1584.5" y="50"/><text fill="#000000" font-family="sans-serif" font-size="14" lengthAdjust="spacing" textLength="136" x="1591.5" y="71.5332">ConvertAndValidate()</text><rect fill="#E2E2F0" height="31.6094" rx="2.5" ry="2.5" style="stroke:#181818;stroke-width:0.5;" width="150" x="1584.5" y="2142.8359"/><text fill="#000000" font-family="sans-serif" font-size="14" lengthAdjust="spacing" textLength="136" x="1591.5" y="2164.3691">ConvertAndValidate()</text><rect fill="#E2E2F0" height="31.6094" rx="2.5" ry="2.5" style="stroke:#181818;stroke-width:0.5;" width="247" x="1744.5" y="50"/><text fill="#000000" font-family="sans-serif" font-size="14" lengthAdjust="spacing" textLength="233" x="1751.5" y="71.5332">CheckProductNumberSerialNumber()</text><rect fill="#E2E2F0" height="31.6094" rx="2.5" ry="2.5" style="stroke:#181818;stroke-width:0.5;" width="247" x="1744.5" y="2142.8359"/><text fill="#000000" font-family="sans-serif" font-size="14" lengthAdjust="spacing" textLength="233" x="1751.5" y="2164.3691">CheckProductNumberSerialNumber()</text><rect fill="#E2E2F0" height="31.6094" rx="2.5" ry="2.5" style="stroke:#181818;stroke-width:0.5;" width="183" x="2001.5" y="50"/><text fill="#000000" font-family="sans-serif" font-size="14" lengthAdjust="spacing" textLength="169" x="2008.5" y="71.5332">ValidateContactInfoValue()</text><rect fill="#E2E2F0" height="31.6094" rx="2.5" ry="2.5" style="stroke:#181818;stroke-width:0.5;" width="183" x="2001.5" y="2142.8359"/><text fill="#000000" font-family="sans-serif" font-size="14" lengthAdjust="spacing" textLength="169" x="2008.5" y="2164.3691">ValidateContactInfoValue()</text><rect fill="#E2E2F0" height="31.6094" rx="2.5" ry="2.5" style="stroke:#181818;stroke-width:0.5;" width="158" x="2194.5" y="50"/><text fill="#000000" font-family="sans-serif" font-size="14" lengthAdjust="spacing" textLength="144" x="2201.5" y="71.5332">ValidateSiteInfoValue()</text><rect fill="#E2E2F0" height="31.6094" rx="2.5" ry="2.5" style="stroke:#181818;stroke-width:0.5;" width="158" x="2194.5" y="2142.8359"/><text fill="#000000" font-family="sans-serif" font-size="14" lengthAdjust="spacing" textLength="144" x="2201.5" y="2164.3691">ValidateSiteInfoValue()</text><rect fill="#E2E2F0" height="31.6094" rx="2.5" ry="2.5" style="stroke:#181818;stroke-width:0.5;" width="176" x="2362.5" y="50"/><text fill="#000000" font-family="sans-serif" font-size="14" lengthAdjust="spacing" textLength="158" x="2373.5" y="71.5332">ValidateCustomerValue()</text><rect fill="#E2E2F0" height="31.6094" rx="2.5" ry="2.5" style="stroke:#181818;stroke-width:0.5;" width="176" x="2362.5" y="2142.8359"/><text fill="#000000" font-family="sans-serif" font-size="14" lengthAdjust="spacing" textLength="158" x="2373.5" y="2164.3691">ValidateCustomerValue()</text><rect fill="#E2E2F0" height="31.6094" rx="2.5" ry="2.5" style="stroke:#181818;stroke-width:0.5;" width="64" x="2548.5" y="50"/><text fill="#000000" font-family="sans-serif" font-size="14" lengthAdjust="spacing" textLength="50" x="2555.5" y="71.5332">IsGuid()</text><rect fill="#E2E2F0" height="31.6094" rx="2.5" ry="2.5" style="stroke:#181818;stroke-width:0.5;" width="64" x="2548.5" y="2142.8359"/><text fill="#000000" font-family="sans-serif" font-size="14" lengthAdjust="spacing" textLength="50" x="2555.5" y="2164.3691">IsGuid()</text><rect fill="#E2E2F0" height="31.6094" rx="2.5" ry="2.5" style="stroke:#181818;stroke-width:0.5;" width="147" x="2622.5" y="50"/><text fill="#000000" font-family="sans-serif" font-size="14" lengthAdjust="spacing" textLength="133" x="2629.5" y="71.5332">CheckDeviceStatus()</text><rect fill="#E2E2F0" height="31.6094" rx="2.5" ry="2.5" style="stroke:#181818;stroke-width:0.5;" width="147" x="2622.5" y="2142.8359"/><text fill="#000000" font-family="sans-serif" font-size="14" lengthAdjust="spacing" textLength="133" x="2629.5" y="2164.3691">CheckDeviceStatus()</text><rect fill="#E2E2F0" height="31.6094" rx="2.5" ry="2.5" style="stroke:#181818;stroke-width:0.5;" width="145" x="2779.5" y="50"/><text fill="#000000" font-family="sans-serif" font-size="14" lengthAdjust="spacing" textLength="131" x="2786.5" y="71.5332">PartialRegisteDevice</text><rect fill="#E2E2F0" height="31.6094" rx="2.5" ry="2.5" style="stroke:#181818;stroke-width:0.5;" width="145" x="2779.5" y="2142.8359"/><text fill="#000000" font-family="sans-serif" font-size="14" lengthAdjust="spacing" textLength="131" x="2786.5" y="2164.3691">PartialRegisteDevice</text><polygon fill="#00008B" points="263.5,110.9609,273.5,114.9609,263.5,118.9609,267.5,114.9609" style="stroke:#00008B;stroke-width:1.0;"/><line style="stroke:#00008B;stroke-width:1.0;" x1="38.5" x2="269.5" y1="114.9609" y2="114.9609"/><text fill="#000000" font-family="sans-serif" font-size="13" lengthAdjust="spacing" textLength="213" x="45.5" y="110.1045">customer do the registraion with dbid</text><polygon fill="#00008B" points="1011.5,141.3125,1021.5,145.3125,1011.5,149.3125,1015.5,145.3125" style="stroke:#00008B;stroke-width:1.0;"/><line style="stroke:#00008B;stroke-width:1.0;" x1="275.5" x2="1017.5" y1="145.3125" y2="145.3125"/><text fill="#000000" font-family="sans-serif" font-size="13" lengthAdjust="spacing" textLength="356" x="282.5" y="140.4561">calling the method with dbid and a string(hpsaDCRegistration)</text><line style="stroke:#00008B;stroke-width:1.0;" x1="1023.5" x2="1065.5" y1="175.6641" y2="175.6641"/><line style="stroke:#00008B;stroke-width:1.0;" x1="1065.5" x2="1065.5" y1="175.6641" y2="188.6641"/><line style="stroke:#00008B;stroke-width:1.0;" x1="1024.5" x2="1065.5" y1="188.6641" y2="188.6641"/><polygon fill="#00008B" points="1034.5,184.6641,1024.5,188.6641,1034.5,192.6641,1030.5,188.6641" style="stroke:#00008B;stroke-width:1.0;"/><text fill="#000000" font-family="sans-serif" font-size="13" lengthAdjust="spacing" textLength="289" x="1030.5" y="170.8076">Check for activity logging and start the registration</text><path d="M179,203.6641 L240,203.6641 L240,212.0156 L230,222.0156 L179,222.0156 L179,203.6641 " fill="#F5F5F5" style="stroke:#808080;stroke-width:1.5;"/><rect fill="none" height="64.5391" style="stroke:#808080;stroke-width:1.5;" width="916.5" x="179" y="203.6641"/><text fill="#000000" font-family="sans-serif" font-size="13" font-weight="bold" lengthAdjust="spacing" textLength="16" x="194" y="218.1592">alt</text><text fill="#000000" font-family="sans-serif" font-size="11" font-weight="bold" lengthAdjust="spacing" textLength="131" x="255" y="217.083">[if dbid is null or empty]</text><polygon fill="#00008B" points="286.5,240.3672,276.5,244.3672,286.5,248.3672,282.5,244.3672" style="stroke:#00008B;stroke-width:1.0;"/><line style="stroke:#00008B;stroke-width:1.0;stroke-dasharray:2.0,2.0;" x1="280.5" x2="1022.5" y1="244.3672" y2="244.3672"/><text fill="#000000" font-family="sans-serif" font-size="13" lengthAdjust="spacing" textLength="329" x="292.5" y="239.5107">return StatusResponse.DBIDNullOrEmpty and do logging</text><line style="stroke:#808080;stroke-width:1.0;stroke-dasharray:2.0,2.0;" x1="179" x2="1095.5" y1="253.3672" y2="253.3672"/><text fill="#000000" font-family="sans-serif" font-size="11" font-weight="bold" lengthAdjust="spacing" textLength="54" x="184" y="264.7861">[proceed]</text><path d="M179,282.2031 L240,282.2031 L240,290.5547 L230,300.5547 L179,300.5547 L179,282.2031 " fill="#F5F5F5" style="stroke:#808080;stroke-width:1.5;"/><rect fill="none" height="64.5391" style="stroke:#808080;stroke-width:1.5;" width="916.5" x="179" y="282.2031"/><text fill="#000000" font-family="sans-serif" font-size="13" font-weight="bold" lengthAdjust="spacing" textLength="16" x="194" y="296.6982">alt</text><text fill="#000000" font-family="sans-serif" font-size="11" font-weight="bold" lengthAdjust="spacing" textLength="216" x="255" y="295.6221">[if hpsaDCRegistration is null or empty]</text><polygon fill="#00008B" points="286.5,318.9063,276.5,322.9063,286.5,326.9063,282.5,322.9063" style="stroke:#00008B;stroke-width:1.0;"/><line style="stroke:#00008B;stroke-width:1.0;stroke-dasharray:2.0,2.0;" x1="280.5" x2="1022.5" y1="322.9063" y2="322.9063"/><text fill="#000000" font-family="sans-serif" font-size="13" lengthAdjust="spacing" textLength="416" x="292.5" y="318.0498">return StatusResponse.HpsaDCRegistrationNullOrEmpty and do logging</text><line style="stroke:#808080;stroke-width:1.0;stroke-dasharray:2.0,2.0;" x1="179" x2="1095.5" y1="331.9063" y2="331.9063"/><text fill="#000000" font-family="sans-serif" font-size="11" font-weight="bold" lengthAdjust="spacing" textLength="54" x="184" y="343.3252">[proceed]</text><polygon fill="#00008B" points="1647.5,372.0938,1657.5,376.0938,1647.5,380.0938,1651.5,376.0938" style="stroke:#00008B;stroke-width:1.0;"/><line style="stroke:#00008B;stroke-width:1.0;" x1="1023.5" x2="1653.5" y1="376.0938" y2="376.0938"/><text fill="#000000" font-family="sans-serif" font-size="13" lengthAdjust="spacing" textLength="240" x="1030.5" y="371.2373">Converting to xml request and validating it</text><polygon fill="#00008B" points="1034.5,402.4453,1024.5,406.4453,1034.5,410.4453,1030.5,406.4453" style="stroke:#00008B;stroke-width:1.0;"/><line style="stroke:#00008B;stroke-width:1.0;stroke-dasharray:2.0,2.0;" x1="1028.5" x2="1658.5" y1="406.4453" y2="406.4453"/><text fill="#000000" font-family="sans-serif" font-size="13" lengthAdjust="spacing" textLength="107" x="1040.5" y="401.5889">returning response</text><path d="M179,421.4453 L240,421.4453 L240,429.7969 L230,439.7969 L179,439.7969 L179,421.4453 " fill="#F5F5F5" style="stroke:#808080;stroke-width:1.5;"/><rect fill="none" height="64.5391" style="stroke:#808080;stroke-width:1.5;" width="916.5" x="179" y="421.4453"/><text fill="#000000" font-family="sans-serif" font-size="13" font-weight="bold" lengthAdjust="spacing" textLength="16" x="194" y="435.9404">alt</text><text fill="#000000" font-family="sans-serif" font-size="11" font-weight="bold" lengthAdjust="spacing" textLength="108" x="255" y="434.8643">[requestxml is null]</text><polygon fill="#00008B" points="286.5,458.1484,276.5,462.1484,286.5,466.1484,282.5,462.1484" style="stroke:#00008B;stroke-width:1.0;"/><line style="stroke:#00008B;stroke-width:1.0;stroke-dasharray:2.0,2.0;" x1="280.5" x2="1022.5" y1="462.1484" y2="462.1484"/><text fill="#000000" font-family="sans-serif" font-size="13" lengthAdjust="spacing" textLength="384" x="292.5" y="457.292">return StatusResponse.RegistrationInvalidXmlString,and do logging</text><line style="stroke:#808080;stroke-width:1.0;stroke-dasharray:2.0,2.0;" x1="179" x2="1095.5" y1="471.1484" y2="471.1484"/><text fill="#000000" font-family="sans-serif" font-size="11" font-weight="bold" lengthAdjust="spacing" textLength="54" x="184" y="482.5674">[proceed]</text><line style="stroke:#00008B;stroke-width:1.0;" x1="1023.5" x2="1065.5" y1="515.3359" y2="515.3359"/><line style="stroke:#00008B;stroke-width:1.0;" x1="1065.5" x2="1065.5" y1="515.3359" y2="528.3359"/><line style="stroke:#00008B;stroke-width:1.0;" x1="1024.5" x2="1065.5" y1="528.3359" y2="528.3359"/><polygon fill="#00008B" points="1034.5,524.3359,1024.5,528.3359,1034.5,532.3359,1030.5,528.3359" style="stroke:#00008B;stroke-width:1.0;"/><text fill="#000000" font-family="sans-serif" font-size="13" lengthAdjust="spacing" textLength="349" x="1030.5" y="510.4795">initializing HpsaReg = (hpsaDCRegistrationType)requestXml;</text><path d="M179,543.3359 L240,543.3359 L240,551.6875 L230,561.6875 L179,561.6875 L179,543.3359 " fill="#F5F5F5" style="stroke:#808080;stroke-width:1.5;"/><rect fill="none" height="64.5391" style="stroke:#808080;stroke-width:1.5;" width="916.5" x="179" y="543.3359"/><text fill="#000000" font-family="sans-serif" font-size="13" font-weight="bold" lengthAdjust="spacing" textLength="16" x="194" y="557.8311">alt</text><text fill="#000000" font-family="sans-serif" font-size="11" font-weight="bold" lengthAdjust="spacing" textLength="62" x="255" y="556.7549">[exception]</text><polygon fill="#00008B" points="286.5,580.0391,276.5,584.0391,286.5,588.0391,282.5,584.0391" style="stroke:#00008B;stroke-width:1.0;"/><line style="stroke:#00008B;stroke-width:1.0;stroke-dasharray:2.0,2.0;" x1="280.5" x2="1022.5" y1="584.0391" y2="584.0391"/><text fill="#000000" font-family="sans-serif" font-size="13" lengthAdjust="spacing" textLength="296" x="292.5" y="579.1826">return StatusResponse.RegistrationInvalidXmlString</text><line style="stroke:#808080;stroke-width:1.0;stroke-dasharray:2.0,2.0;" x1="179" x2="1095.5" y1="593.0391" y2="593.0391"/><text fill="#000000" font-family="sans-serif" font-size="11" font-weight="bold" lengthAdjust="spacing" textLength="54" x="184" y="604.458">[proceed]</text><line style="stroke:#00008B;stroke-width:1.0;" x1="1023.5" x2="1065.5" y1="637.2266" y2="637.2266"/><line style="stroke:#00008B;stroke-width:1.0;" x1="1065.5" x2="1065.5" y1="637.2266" y2="650.2266"/><line style="stroke:#00008B;stroke-width:1.0;" x1="1024.5" x2="1065.5" y1="650.2266" y2="650.2266"/><polygon fill="#00008B" points="1034.5,646.2266,1024.5,650.2266,1034.5,654.2266,1030.5,650.2266" style="stroke:#00008B;stroke-width:1.0;"/><text fill="#000000" font-family="sans-serif" font-size="13" lengthAdjust="spacing" textLength="232" x="1030.5" y="632.3701">activity.MessageGuid = HpsaReg.GUID;</text><path d="M179,665.2266 L240,665.2266 L240,673.5781 L230,683.5781 L179,683.5781 L179,665.2266 " fill="#F5F5F5" style="stroke:#808080;stroke-width:1.5;"/><rect fill="none" height="64.5391" style="stroke:#808080;stroke-width:1.5;" width="916.5" x="179" y="665.2266"/><text fill="#000000" font-family="sans-serif" font-size="13" font-weight="bold" lengthAdjust="spacing" textLength="16" x="194" y="679.7217">alt</text><text fill="#000000" font-family="sans-serif" font-size="11" font-weight="bold" lengthAdjust="spacing" textLength="177" x="255" y="678.6455">[Missing "SYSTEM_IDENTIFIERS"]</text><polygon fill="#00008B" points="286.5,701.9297,276.5,705.9297,286.5,709.9297,282.5,705.9297" style="stroke:#00008B;stroke-width:1.0;"/><line style="stroke:#00008B;stroke-width:1.0;stroke-dasharray:2.0,2.0;" x1="280.5" x2="1022.5" y1="705.9297" y2="705.9297"/><text fill="#000000" font-family="sans-serif" font-size="13" lengthAdjust="spacing" textLength="724" x="292.5" y="701.0732">return StatusResponse.MissingSystemIdentifiers, and Log.Warn("Missing 'SYSTEM_IDENTIFIERS' section! DBID = " + dbid);</text><line style="stroke:#808080;stroke-width:1.0;stroke-dasharray:2.0,2.0;" x1="179" x2="1095.5" y1="714.9297" y2="714.9297"/><text fill="#000000" font-family="sans-serif" font-size="11" font-weight="bold" lengthAdjust="spacing" textLength="54" x="184" y="726.3486">[proceed]</text><polygon fill="#00008B" points="1856,755.1172,1866,759.1172,1856,763.1172,1860,759.1172" style="stroke:#00008B;stroke-width:1.0;"/><line style="stroke:#00008B;stroke-width:1.0;" x1="1023.5" x2="1862" y1="759.1172" y2="759.1172"/><text fill="#000000" font-family="sans-serif" font-size="13" lengthAdjust="spacing" textLength="259" x="1030.5" y="754.2607">Checking Product Number and SerialNumber</text><polygon fill="#00008B" points="1034.5,785.4688,1024.5,789.4688,1034.5,793.4688,1030.5,789.4688" style="stroke:#00008B;stroke-width:1.0;"/><line style="stroke:#00008B;stroke-width:1.0;stroke-dasharray:2.0,2.0;" x1="1028.5" x2="1867" y1="789.4688" y2="789.4688"/><text fill="#000000" font-family="sans-serif" font-size="13" lengthAdjust="spacing" textLength="129" x="1040.5" y="784.6123">return bool as reponse</text><path d="M179,804.4688 L240,804.4688 L240,812.8203 L230,822.8203 L179,822.8203 L179,804.4688 " fill="#F5F5F5" style="stroke:#808080;stroke-width:1.5;"/><rect fill="none" height="64.5391" style="stroke:#808080;stroke-width:1.5;" width="916.5" x="179" y="804.4688"/><text fill="#000000" font-family="sans-serif" font-size="13" font-weight="bold" lengthAdjust="spacing" textLength="16" x="194" y="818.9639">alt</text><text fill="#000000" font-family="sans-serif" font-size="11" font-weight="bold" lengthAdjust="spacing" textLength="95" x="255" y="817.8877">[response=false]</text><polygon fill="#00008B" points="286.5,841.1719,276.5,845.1719,286.5,849.1719,282.5,845.1719" style="stroke:#00008B;stroke-width:1.0;"/><line style="stroke:#00008B;stroke-width:1.0;stroke-dasharray:2.0,2.0;" x1="280.5" x2="1022.5" y1="845.1719" y2="845.1719"/><text fill="#000000" font-family="sans-serif" font-size="13" lengthAdjust="spacing" textLength="474" x="292.5" y="840.3154">return statusresponce as "ProductNumber or SerialNumber is null!",and do logging</text><line style="stroke:#808080;stroke-width:1.0;stroke-dasharray:2.0,2.0;" x1="179" x2="1095.5" y1="854.1719" y2="854.1719"/><text fill="#000000" font-family="sans-serif" font-size="11" font-weight="bold" lengthAdjust="spacing" textLength="54" x="184" y="865.5908">[proceed]</text><polygon fill="#00008B" points="2081,894.3594,2091,898.3594,2081,902.3594,2085,898.3594" style="stroke:#00008B;stroke-width:1.0;"/><line style="stroke:#00008B;stroke-width:1.0;" x1="1023.5" x2="2087" y1="898.3594" y2="898.3594"/><text fill="#000000" font-family="sans-serif" font-size="13" lengthAdjust="spacing" textLength="150" x="1030.5" y="893.5029">Validating the contact info</text><polygon fill="#00008B" points="1034.5,924.7109,1024.5,928.7109,1034.5,932.7109,1030.5,928.7109" style="stroke:#00008B;stroke-width:1.0;"/><line style="stroke:#00008B;stroke-width:1.0;stroke-dasharray:2.0,2.0;" x1="1028.5" x2="2092" y1="928.7109" y2="928.7109"/><text fill="#000000" font-family="sans-serif" font-size="13" lengthAdjust="spacing" textLength="182" x="1040.5" y="923.8545">return string containing reponse</text><path d="M179,943.7109 L240,943.7109 L240,952.0625 L230,962.0625 L179,962.0625 L179,943.7109 " fill="#F5F5F5" style="stroke:#808080;stroke-width:1.5;"/><rect fill="none" height="64.5391" style="stroke:#808080;stroke-width:1.5;" width="916.5" x="179" y="943.7109"/><text fill="#000000" font-family="sans-serif" font-size="13" font-weight="bold" lengthAdjust="spacing" textLength="16" x="194" y="958.2061">alt</text><text fill="#000000" font-family="sans-serif" font-size="11" font-weight="bold" lengthAdjust="spacing" textLength="94" x="255" y="957.1299">[response !=null]</text><polygon fill="#00008B" points="286.5,980.4141,276.5,984.4141,286.5,988.4141,282.5,984.4141" style="stroke:#00008B;stroke-width:1.0;"/><line style="stroke:#00008B;stroke-width:1.0;stroke-dasharray:2.0,2.0;" x1="280.5" x2="1022.5" y1="984.4141" y2="984.4141"/><text fill="#000000" font-family="sans-serif" font-size="13" lengthAdjust="spacing" textLength="369" x="292.5" y="979.5576">return StatusResponse.InvalidCustomerInfoValue,and do logging</text><line style="stroke:#808080;stroke-width:1.0;stroke-dasharray:2.0,2.0;" x1="179" x2="1095.5" y1="993.4141" y2="993.4141"/><text fill="#000000" font-family="sans-serif" font-size="11" font-weight="bold" lengthAdjust="spacing" textLength="54" x="184" y="1004.833">[proceed]</text><polygon fill="#00008B" points="2261.5,1033.6016,2271.5,1037.6016,2261.5,1041.6016,2265.5,1037.6016" style="stroke:#00008B;stroke-width:1.0;"/><line style="stroke:#00008B;stroke-width:1.0;" x1="1023.5" x2="2267.5" y1="1037.6016" y2="1037.6016"/><text fill="#000000" font-family="sans-serif" font-size="13" lengthAdjust="spacing" textLength="128" x="1030.5" y="1032.7451">Validating the site info</text><polygon fill="#00008B" points="1034.5,1063.9531,1024.5,1067.9531,1034.5,1071.9531,1030.5,1067.9531" style="stroke:#00008B;stroke-width:1.0;"/><line style="stroke:#00008B;stroke-width:1.0;stroke-dasharray:2.0,2.0;" x1="1028.5" x2="2272.5" y1="1067.9531" y2="1067.9531"/><text fill="#000000" font-family="sans-serif" font-size="13" lengthAdjust="spacing" textLength="182" x="1040.5" y="1063.0967">return string containing reponse</text><path d="M179,1082.9531 L240,1082.9531 L240,1091.3047 L230,1101.3047 L179,1101.3047 L179,1082.9531 " fill="#F5F5F5" style="stroke:#808080;stroke-width:1.5;"/><rect fill="none" height="64.5391" style="stroke:#808080;stroke-width:1.5;" width="916.5" x="179" y="1082.9531"/><text fill="#000000" font-family="sans-serif" font-size="13" font-weight="bold" lengthAdjust="spacing" textLength="16" x="194" y="1097.4482">alt</text><text fill="#000000" font-family="sans-serif" font-size="11" font-weight="bold" lengthAdjust="spacing" textLength="94" x="255" y="1096.3721">[response !=null]</text><polygon fill="#00008B" points="286.5,1119.6563,276.5,1123.6563,286.5,1127.6563,282.5,1123.6563" style="stroke:#00008B;stroke-width:1.0;"/><line style="stroke:#00008B;stroke-width:1.0;stroke-dasharray:2.0,2.0;" x1="280.5" x2="1022.5" y1="1123.6563" y2="1123.6563"/><text fill="#000000" font-family="sans-serif" font-size="13" lengthAdjust="spacing" textLength="369" x="292.5" y="1118.7998">return StatusResponse.InvalidCustomerInfoValue,and do logging</text><line style="stroke:#808080;stroke-width:1.0;stroke-dasharray:2.0,2.0;" x1="179" x2="1095.5" y1="1132.6563" y2="1132.6563"/><text fill="#000000" font-family="sans-serif" font-size="11" font-weight="bold" lengthAdjust="spacing" textLength="54" x="184" y="1144.0752">[proceed]</text><polygon fill="#00008B" points="2438.5,1172.8438,2448.5,1176.8438,2438.5,1180.8438,2442.5,1176.8438" style="stroke:#00008B;stroke-width:1.0;"/><line style="stroke:#00008B;stroke-width:1.0;" x1="1023.5" x2="2444.5" y1="1176.8438" y2="1176.8438"/><text fill="#000000" font-family="sans-serif" font-size="13" lengthAdjust="spacing" textLength="170" x="1030.5" y="1171.9873">Validating the customer value</text><polygon fill="#00008B" points="1034.5,1203.1953,1024.5,1207.1953,1034.5,1211.1953,1030.5,1207.1953" style="stroke:#00008B;stroke-width:1.0;"/><line style="stroke:#00008B;stroke-width:1.0;stroke-dasharray:2.0,2.0;" x1="1028.5" x2="2449.5" y1="1207.1953" y2="1207.1953"/><text fill="#000000" font-family="sans-serif" font-size="13" lengthAdjust="spacing" textLength="153" x="1040.5" y="1202.3389">returning bool as response</text><path d="M179,1222.1953 L240,1222.1953 L240,1230.5469 L230,1240.5469 L179,1240.5469 L179,1222.1953 " fill="#F5F5F5" style="stroke:#808080;stroke-width:1.5;"/><rect fill="none" height="64.5391" style="stroke:#808080;stroke-width:1.5;" width="916.5" x="179" y="1222.1953"/><text fill="#000000" font-family="sans-serif" font-size="13" font-weight="bold" lengthAdjust="spacing" textLength="16" x="194" y="1236.6904">alt</text><text fill="#000000" font-family="sans-serif" font-size="11" font-weight="bold" lengthAdjust="spacing" textLength="95" x="255" y="1235.6143">[response=false]</text><polygon fill="#00008B" points="286.5,1258.8984,276.5,1262.8984,286.5,1266.8984,282.5,1262.8984" style="stroke:#00008B;stroke-width:1.0;"/><line style="stroke:#00008B;stroke-width:1.0;stroke-dasharray:2.0,2.0;" x1="280.5" x2="1022.5" y1="1262.8984" y2="1262.8984"/><text fill="#000000" font-family="sans-serif" font-size="13" lengthAdjust="spacing" textLength="344" x="292.5" y="1258.042">return StatusResponse.InvalidCustomerInfoValue,do logging</text><line style="stroke:#808080;stroke-width:1.0;stroke-dasharray:2.0,2.0;" x1="179" x2="1095.5" y1="1271.8984" y2="1271.8984"/><text fill="#000000" font-family="sans-serif" font-size="11" font-weight="bold" lengthAdjust="spacing" textLength="54" x="184" y="1283.3174">[proceed]</text><polygon fill="#00008B" points="2568.5,1312.0859,2578.5,1316.0859,2568.5,1320.0859,2572.5,1316.0859" style="stroke:#00008B;stroke-width:1.0;"/><line style="stroke:#00008B;stroke-width:1.0;" x1="1023.5" x2="2574.5" y1="1316.0859" y2="1316.0859"/><text fill="#000000" font-family="sans-serif" font-size="13" lengthAdjust="spacing" textLength="110" x="1030.5" y="1311.2295">Validating the Guid</text><polygon fill="#00008B" points="1034.5,1342.4375,1024.5,1346.4375,1034.5,1350.4375,1030.5,1346.4375" style="stroke:#00008B;stroke-width:1.0;"/><line style="stroke:#00008B;stroke-width:1.0;stroke-dasharray:2.0,2.0;" x1="1028.5" x2="2579.5" y1="1346.4375" y2="1346.4375"/><text fill="#000000" font-family="sans-serif" font-size="13" lengthAdjust="spacing" textLength="136" x="1040.5" y="1341.5811">return bool as response</text><path d="M179,1361.4375 L240,1361.4375 L240,1369.7891 L230,1379.7891 L179,1379.7891 L179,1361.4375 " fill="#F5F5F5" style="stroke:#808080;stroke-width:1.5;"/><rect fill="none" height="110.7266" style="stroke:#808080;stroke-width:1.5;" width="916.5" x="179" y="1361.4375"/><text fill="#000000" font-family="sans-serif" font-size="13" font-weight="bold" lengthAdjust="spacing" textLength="16" x="194" y="1375.9326">alt</text><text fill="#000000" font-family="sans-serif" font-size="11" font-weight="bold" lengthAdjust="spacing" textLength="95" x="255" y="1374.8564">[response=false]</text><polygon fill="#00008B" points="286.5,1398.1406,276.5,1402.1406,286.5,1406.1406,282.5,1402.1406" style="stroke:#00008B;stroke-width:1.0;"/><line style="stroke:#00008B;stroke-width:1.0;stroke-dasharray:2.0,2.0;" x1="280.5" x2="1022.5" y1="1402.1406" y2="1402.1406"/><text fill="#000000" font-family="sans-serif" font-size="13" lengthAdjust="spacing" textLength="206" x="292.5" y="1397.2842">return StatusResponse.CorruptGuid</text><line style="stroke:#808080;stroke-width:1.0;stroke-dasharray:2.0,2.0;" x1="179" x2="1095.5" y1="1411.1406" y2="1411.1406"/><text fill="#000000" font-family="sans-serif" font-size="11" font-weight="bold" lengthAdjust="spacing" textLength="96" x="184" y="1422.5596">[Other exception]</text><polygon fill="#00008B" points="286.5,1444.3281,276.5,1448.3281,286.5,1452.3281,282.5,1448.3281" style="stroke:#00008B;stroke-width:1.0;"/><line style="stroke:#00008B;stroke-width:1.0;" x1="280.5" x2="1022.5" y1="1448.3281" y2="1448.3281"/><text fill="#000000" font-family="sans-serif" font-size="13" lengthAdjust="spacing" textLength="272" x="292.5" y="1443.4717">returning  StatusResponse.CorruptGuid,logging</text><line style="stroke:#808080;stroke-width:1.0;stroke-dasharray:2.0,2.0;" x1="179" x2="1095.5" y1="1457.3281" y2="1457.3281"/><text fill="#000000" font-family="sans-serif" font-size="11" font-weight="bold" lengthAdjust="spacing" textLength="54" x="184" y="1468.7471">[proceed]</text><line style="stroke:#00008B;stroke-width:1.0;" x1="1023.5" x2="1065.5" y1="1517.8672" y2="1517.8672"/><line style="stroke:#00008B;stroke-width:1.0;" x1="1065.5" x2="1065.5" y1="1517.8672" y2="1530.8672"/><line style="stroke:#00008B;stroke-width:1.0;" x1="1024.5" x2="1065.5" y1="1530.8672" y2="1530.8672"/><polygon fill="#00008B" points="1034.5,1526.8672,1024.5,1530.8672,1034.5,1534.8672,1030.5,1530.8672" style="stroke:#00008B;stroke-width:1.0;"/><text fill="#000000" font-family="sans-serif" font-size="13" lengthAdjust="spacing" textLength="217" x="1030.5" y="1496.6592">Checking for the userid,and password</text><text fill="#000000" font-family="sans-serif" font-size="13" lengthAdjust="spacing" textLength="570" x="1030.5" y="1513.0107">( (HpsaReg.HPPIdentification == null || string.IsNullOrEmpty(HpsaReg.HPPIdentification.UserId)) ?)</text><path d="M179,1545.8672 L240,1545.8672 L240,1554.2188 L230,1564.2188 L179,1564.2188 L179,1545.8672 " fill="#F5F5F5" style="stroke:#808080;stroke-width:1.5;"/><rect fill="none" height="124.2422" style="stroke:#808080;stroke-width:1.5;" width="1271.5" x="179" y="1545.8672"/><text fill="#000000" font-family="sans-serif" font-size="13" font-weight="bold" lengthAdjust="spacing" textLength="16" x="194" y="1560.3623">alt</text><text fill="#000000" font-family="sans-serif" font-size="11" font-weight="bold" lengthAdjust="spacing" textLength="84" x="255" y="1559.2861">[IsNullorEmpty]</text><line style="stroke:#00008B;stroke-width:1.0;" x1="1023.5" x2="1065.5" y1="1602.9219" y2="1602.9219"/><line style="stroke:#00008B;stroke-width:1.0;" x1="1065.5" x2="1065.5" y1="1602.9219" y2="1615.9219"/><line style="stroke:#00008B;stroke-width:1.0;" x1="1024.5" x2="1065.5" y1="1615.9219" y2="1615.9219"/><polygon fill="#00008B" points="1034.5,1611.9219,1024.5,1615.9219,1034.5,1619.9219,1030.5,1615.9219" style="stroke:#00008B;stroke-width:1.0;"/><text fill="#000000" font-family="sans-serif" font-size="13" lengthAdjust="spacing" textLength="311" x="1030.5" y="1581.7139">Provide the default  Identification UserId and password</text><text fill="#000000" font-family="sans-serif" font-size="13" lengthAdjust="spacing" textLength="408" x="1030.5" y="1598.0654">(StaTSBridgeConfiguration.HPPID : HpsaReg.HPPIdentification.UserId)</text><line style="stroke:#808080;stroke-width:1.0;stroke-dasharray:2.0,2.0;" x1="179" x2="1450.5" y1="1624.9219" y2="1624.9219"/><text fill="#000000" font-family="sans-serif" font-size="11" font-weight="bold" lengthAdjust="spacing" textLength="62" x="184" y="1636.3408">[exception]</text><polygon fill="#00008B" points="286.5,1658.1094,276.5,1662.1094,286.5,1666.1094,282.5,1662.1094" style="stroke:#00008B;stroke-width:1.0;"/><line style="stroke:#00008B;stroke-width:1.0;stroke-dasharray:2.0,2.0;" x1="280.5" x2="1022.5" y1="1662.1094" y2="1662.1094"/><text fill="#000000" font-family="sans-serif" font-size="13" lengthAdjust="spacing" textLength="369" x="292.5" y="1657.2529">return StatusResponse.HPPIdentificationIsInvalid and do logging</text><path d="M159,1684.1094 L220,1684.1094 L220,1692.4609 L210,1702.4609 L159,1702.4609 L159,1684.1094 " fill="#F5F5F5" style="stroke:#808080;stroke-width:1.5;"/><rect fill="none" height="442.7266" style="stroke:#808080;stroke-width:1.5;" width="2785.5" x="159" y="1684.1094"/><text fill="#000000" font-family="sans-serif" font-size="13" font-weight="bold" lengthAdjust="spacing" textLength="16" x="174" y="1698.6045">alt</text><text fill="#000000" font-family="sans-serif" font-size="11" font-weight="bold" lengthAdjust="spacing" textLength="158" x="235" y="1697.5283">[Checking the device status]</text><polygon fill="#00008B" points="2684,1720.8125,2694,1724.8125,2684,1728.8125,2688,1724.8125" style="stroke:#00008B;stroke-width:1.0;"/><line style="stroke:#00008B;stroke-width:1.0;" x1="1023.5" x2="2690" y1="1724.8125" y2="1724.8125"/><text fill="#000000" font-family="sans-serif" font-size="13" lengthAdjust="spacing" textLength="316" x="1030.5" y="1719.9561">Making a call for checking the device status using dbid</text><polygon fill="#00008B" points="1034.5,1751.1641,1024.5,1755.1641,1034.5,1759.1641,1030.5,1755.1641" style="stroke:#00008B;stroke-width:1.0;"/><line style="stroke:#00008B;stroke-width:1.0;stroke-dasharray:2.0,2.0;" x1="1028.5" x2="2695" y1="1755.1641" y2="1755.1641"/><text fill="#000000" font-family="sans-serif" font-size="13" lengthAdjust="spacing" textLength="207" x="1040.5" y="1750.3076">Return the responce in string format</text><path d="M169,1770.1641 L230,1770.1641 L230,1778.5156 L220,1788.5156 L169,1788.5156 L169,1770.1641 " fill="#F5F5F5" style="stroke:#808080;stroke-width:1.5;"/><rect fill="none" height="349.6719" style="stroke:#808080;stroke-width:1.5;" width="2765.5" x="169" y="1770.1641"/><text fill="#000000" font-family="sans-serif" font-size="13" font-weight="bold" lengthAdjust="spacing" textLength="16" x="184" y="1784.6592">alt</text><text fill="#000000" font-family="sans-serif" font-size="11" font-weight="bold" lengthAdjust="spacing" textLength="149" x="245" y="1783.583">["isCompleteRegistration"]</text><polygon fill="#00008B" points="286.5,1806.8672,276.5,1810.8672,286.5,1814.8672,282.5,1810.8672" style="stroke:#00008B;stroke-width:1.0;"/><line style="stroke:#00008B;stroke-width:1.0;stroke-dasharray:2.0,2.0;" x1="280.5" x2="1022.5" y1="1810.8672" y2="1810.8672"/><text fill="#000000" font-family="sans-serif" font-size="13" lengthAdjust="spacing" textLength="481" x="292.5" y="1806.0107">returning StatusResponse: statusResponse = StatusResponse.AlreadyRegistration</text><line style="stroke:#808080;stroke-width:1.0;stroke-dasharray:2.0,2.0;" x1="169" x2="2934.5" y1="1819.8672" y2="1819.8672"/><text fill="#000000" font-family="sans-serif" font-size="11" font-weight="bold" lengthAdjust="spacing" textLength="116" x="174" y="1831.2861">[!isPartialRegistered]</text><line style="stroke:#00008B;stroke-width:1.0;" x1="1023.5" x2="1065.5" y1="1857.0547" y2="1857.0547"/><line style="stroke:#00008B;stroke-width:1.0;" x1="1065.5" x2="1065.5" y1="1857.0547" y2="1870.0547"/><line style="stroke:#00008B;stroke-width:1.0;" x1="1024.5" x2="1065.5" y1="1870.0547" y2="1870.0547"/><polygon fill="#00008B" points="1034.5,1866.0547,1024.5,1870.0547,1034.5,1874.0547,1030.5,1870.0547" style="stroke:#00008B;stroke-width:1.0;"/><text fill="#000000" font-family="sans-serif" font-size="13" lengthAdjust="spacing" textLength="214" x="1030.5" y="1852.1982">log-Start partial registration.DBID:{0}"</text><polygon fill="#00008B" points="2840,1896.4063,2850,1900.4063,2840,1904.4063,2844,1900.4063" style="stroke:#00008B;stroke-width:1.0;"/><line style="stroke:#00008B;stroke-width:1.0;" x1="1023.5" x2="2846" y1="1900.4063" y2="1900.4063"/><text fill="#000000" font-family="sans-serif" font-size="13" lengthAdjust="spacing" textLength="191" x="1030.5" y="1895.5498">Calling to start partial registration</text><polygon fill="#00008B" points="1034.5,1926.7578,1024.5,1930.7578,1034.5,1934.7578,1030.5,1930.7578" style="stroke:#00008B;stroke-width:1.0;"/><line style="stroke:#00008B;stroke-width:1.0;stroke-dasharray:2.0,2.0;" x1="1028.5" x2="2851" y1="1930.7578" y2="1930.7578"/><text fill="#000000" font-family="sans-serif" font-size="13" lengthAdjust="spacing" textLength="152" x="1040.5" y="1925.9014">return the status response</text><path d="M179,1945.7578 L240,1945.7578 L240,1954.1094 L230,1964.1094 L179,1964.1094 L179,1945.7578 " fill="#F5F5F5" style="stroke:#808080;stroke-width:1.5;"/><rect fill="none" height="107.8906" style="stroke:#808080;stroke-width:1.5;" width="1161.5" x="179" y="1945.7578"/><text fill="#000000" font-family="sans-serif" font-size="13" font-weight="bold" lengthAdjust="spacing" textLength="16" x="194" y="1960.2529">alt</text><text fill="#000000" font-family="sans-serif" font-size="11" font-weight="bold" lengthAdjust="spacing" textLength="179" x="255" y="1959.1768">[Successfull Partial Registration]</text><line style="stroke:#00008B;stroke-width:1.0;" x1="1023.5" x2="1065.5" y1="1986.4609" y2="1986.4609"/><line style="stroke:#00008B;stroke-width:1.0;" x1="1065.5" x2="1065.5" y1="1986.4609" y2="1999.4609"/><line style="stroke:#00008B;stroke-width:1.0;" x1="1024.5" x2="1065.5" y1="1999.4609" y2="1999.4609"/><polygon fill="#00008B" points="1034.5,1995.4609,1024.5,1999.4609,1034.5,2003.4609,1030.5,1999.4609" style="stroke:#00008B;stroke-width:1.0;"/><text fill="#000000" font-family="sans-serif" font-size="13" lengthAdjust="spacing" textLength="298" x="1030.5" y="1981.6045">Log:"Partial register successfully for DBID:{0}", dbid</text><line style="stroke:#808080;stroke-width:1.0;stroke-dasharray:2.0,2.0;" x1="179" x2="1340.5" y1="2008.4609" y2="2008.4609"/><text fill="#000000" font-family="sans-serif" font-size="11" font-weight="bold" lengthAdjust="spacing" textLength="36" x="184" y="2019.8799">[Error]</text><polygon fill="#00008B" points="286.5,2041.6484,276.5,2045.6484,286.5,2049.6484,282.5,2045.6484" style="stroke:#00008B;stroke-width:1.0;"/><line style="stroke:#00008B;stroke-width:1.0;stroke-dasharray:2.0,2.0;" x1="280.5" x2="1022.5" y1="2045.6484" y2="2045.6484"/><text fill="#000000" font-family="sans-serif" font-size="13" lengthAdjust="spacing" textLength="267" x="292.5" y="2040.792">Returning status Response Stating the reason</text><line style="stroke:#808080;stroke-width:1.0;stroke-dasharray:2.0,2.0;" x1="169" x2="2934.5" y1="2061.6484" y2="2061.6484"/><text fill="#000000" font-family="sans-serif" font-size="11" font-weight="bold" lengthAdjust="spacing" textLength="224" x="174" y="2073.0674">[Partiall Registration Already Completed]</text><line style="stroke:#00008B;stroke-width:1.0;" x1="1023.5" x2="1065.5" y1="2098.8359" y2="2098.8359"/><line style="stroke:#00008B;stroke-width:1.0;" x1="1065.5" x2="1065.5" y1="2098.8359" y2="2111.8359"/><line style="stroke:#00008B;stroke-width:1.0;" x1="1024.5" x2="1065.5" y1="2111.8359" y2="2111.8359"/><polygon fill="#00008B" points="1034.5,2107.8359,1024.5,2111.8359,1034.5,2115.8359,1030.5,2111.8359" style="stroke:#00008B;stroke-width:1.0;"/><text fill="#000000" font-family="sans-serif" font-size="13" lengthAdjust="spacing" textLength="622" x="1030.5" y="2093.9795">Log.Info("The Device had been partially registered. Directly jump to Complete Registration. DBID = " + dbid);</text><!--SRC=[pLTDR-Cs4BthLqnqYOqcHizU94LYfra1IJQmihjTe431YBJCHY9LadBMs-r_x_3BiMGxSTjB3mPiQURDcpV3uVWO9gqsikRV69W50z8qZ2WY2fRe9ouQ_5w3Pd-q31zTA2MV9xAI2gP4FLrMxIwh6px7Zs2NKb6clFaTMQvsc5uhsJQRTjUAxBSZnLE9NmJrjfyNtB2yba-R98GqdS2MvxMiA1CpIVjsFS0RNYxC5rPLyZb94b8OV9PwUPXAWMXeDLC90XXUy8O80sbkYD6NYjEIpLZ9jL74S2a6GsUFvakEKdPSm1ioDMNsPJ1Lj6iraMB9bBaGz1EfE2Kc6XRBdk625K_tIjAsC7Tj_SXKpXGdbVyUdHhHzOgW6CPWffcOItpKnY3BWk-spr7pBMFTCuOrUX2l2zrB8DFNBQVXBIztPEU5ibAtEYRKa-lU_Y1LaDOxECD69Oajs-bvACQu2AI0IjVoAjGDomRFt2o0Fd9i5MzzUgxek21LnKNfh6jc5fA-608H-044G8l1ej5aEjdiX66Yg0DncS0SUmhrvajkLb39ihIu5a8RpA33ntfZ6rO6-Do7uXf4MrM06Ankp2e1mBuvVKbDCTCg0Lwf6TED59gDffVPz0xzFgWhw-N2OUuXUi8gpL0cMJ164oReEkPsCl-MmVijf7_4nofOBCVXIBXAIFXQLoWLpWTj7CBIzvnzoqrIB4-TwfwFVQW26PzUyBGW8QUabmdiJcKpYKoueB_KLUxAV_9M9g4LW0jkkvL_iyIiE8WAPx2ZVHvM3Hi6iXZddIFFlXQiSUq1_vtq5aj88i_OgADRfZKfcJsdI3CG7br_pARll9otN6kRIvf_oH-kRd_BfbTt3zdFsTKiJvE3MYGWv2iyldM6yzhmEMTAdxZYtiXoz9aeCKXZfEFjICSuRmkRuX7ObaUcAVpWJixmtRwkQiGOtCcqc66AWX-TBl3cB4tGUhEhu57Aoirkrkaidz7Pd618Mw7T9T8kVszTC0kJTgQuFMERqMEV7gKd1nqO7E7ZJozdmawMmWzxRB-vJF1z9na_mRmD3oTcHrfmTEPEom4b3PqMBu7rjN4WVxt5N-Fb4yZh_pbv75TzyUErixGmAF_MX7ff9_rQFnrouFUoVvCvB_l4xQbFUBcdymDLsDFx1oWzaKgrZN5X7ASF65Lj3RaUYcNt2jB9wrd6-zYYs2lPvcct17IqzMs8ri-uHVug1Z28u-xz_NsSIuM_3S_E_6tu_Njem56cDows_PwZZnWheyCX_3JqLVQEqZlw8bkIE16MdFhLdB8vQT4KUYmy5lHuepGFkLzCyTwSyxBruz-HcS8OtYJdfTiimo4tVHyjqw4NjwvvMmkN-xeIFakB7gPZB7r1nxV4cH2movYhMR7N3Kjfdxiz3X4AwdjtvXdx7IkCNRwU7GXP4-C8fLnFPDrKp7IM-dHFGrllhWpZG2J-ngkefzD5fHYXgqruh_SHrzrTLZ4QPS0SKBtJtAsAZRVgh8jkrHl_-UDVaUfveyQJkBtAi6JkyhJsZV8wnPdYHguNT7tEhJnvMnIu4CnjwmUkCEjX1RfuRu_ZRXxYuT7MBm0hLyerxHDVDAV45VxRL5kIpzQI1sfhZQt2iHrGN6qL5G4hKEZoX504YCMcoIRnaPsQW_G1uVp_2LWG2e-CYQWWibVh8erWoXNk7_ZmzxPkhDmHjnDrj6iv4Nus_Gq0]--></g></svg>