<?xml version="1.0" encoding="us-ascii" standalone="no"?><svg xmlns="http://www.w3.org/2000/svg" xmlns:xlink="http://www.w3.org/1999/xlink" contentStyleType="text/css" height="1886px" preserveAspectRatio="none" style="width:3232px;height:1886px;background:#FFFFFF;" version="1.1" viewBox="0 0 3232 1886" width="3232px" zoomAndPan="magnify"><defs/><g><rect fill="none" height="157.5938" style="stroke:#808080;stroke-width:1.5;" width="1389.5" x="30" y="54.6094"/><rect fill="none" height="64.5391" style="stroke:#808080;stroke-width:1.5;" width="615.5" x="40" y="140.6641"/><rect fill="none" height="1477.6406" style="stroke:#808080;stroke-width:1.5;" width="3205" x="20" y="355.6094"/><rect fill="none" height="64.5391" style="stroke:#808080;stroke-width:1.5;" width="615.5" x="40" y="548.5547"/><rect fill="none" height="218.2969" style="stroke:#808080;stroke-width:1.5;" width="2353" x="30" y="627.0938"/><rect fill="none" height="64.5391" style="stroke:#808080;stroke-width:1.5;" width="615.5" x="40" y="773.8516"/><rect fill="none" height="64.5391" style="stroke:#808080;stroke-width:1.5;" width="615.5" x="40" y="920.0938"/><rect fill="none" height="107.8906" style="stroke:#808080;stroke-width:1.5;" width="920.5" x="40" y="1041.9844"/><rect fill="none" height="64.5391" style="stroke:#808080;stroke-width:1.5;" width="615.5" x="40" y="1343.9844"/><rect fill="none" height="64.5391" style="stroke:#808080;stroke-width:1.5;" width="615.5" x="40" y="1483.2266"/><rect fill="none" height="64.5391" style="stroke:#808080;stroke-width:1.5;" width="615.5" x="40" y="1622.4688"/><rect fill="none" height="64.5391" style="stroke:#808080;stroke-width:1.5;" width="615.5" x="40" y="1761.7109"/><line style="stroke:#000080;stroke-width:0.5;stroke-dasharray:5.0,5.0;" x1="85" x2="85" y1="37.6094" y2="1850.25"/><line style="stroke:#000080;stroke-width:0.5;stroke-dasharray:5.0,5.0;" x1="585.5" x2="585.5" y1="37.6094" y2="1850.25"/><line style="stroke:#000080;stroke-width:0.5;stroke-dasharray:5.0,5.0;" x1="1318.5" x2="1318.5" y1="37.6094" y2="1850.25"/><line style="stroke:#000080;stroke-width:0.5;stroke-dasharray:5.0,5.0;" x1="1515.5" x2="1515.5" y1="37.6094" y2="1850.25"/><line style="stroke:#000080;stroke-width:0.5;stroke-dasharray:5.0,5.0;" x1="1720.5" x2="1720.5" y1="37.6094" y2="1850.25"/><line style="stroke:#000080;stroke-width:0.5;stroke-dasharray:5.0,5.0;" x1="1937.5" x2="1937.5" y1="37.6094" y2="1850.25"/><line style="stroke:#000080;stroke-width:0.5;stroke-dasharray:5.0,5.0;" x1="2276" x2="2276" y1="37.6094" y2="1850.25"/><line style="stroke:#000080;stroke-width:0.5;stroke-dasharray:5.0,5.0;" x1="2483" x2="2483" y1="37.6094" y2="1850.25"/><line style="stroke:#000080;stroke-width:0.5;stroke-dasharray:5.0,5.0;" x1="2667" x2="2667" y1="37.6094" y2="1850.25"/><line style="stroke:#000080;stroke-width:0.5;stroke-dasharray:5.0,5.0;" x1="2844" x2="2844" y1="37.6094" y2="1850.25"/><line style="stroke:#000080;stroke-width:0.5;stroke-dasharray:5.0,5.0;" x1="3081" x2="3081" y1="37.6094" y2="1850.25"/><rect fill="#E2E2F0" height="31.6094" rx="2.5" ry="2.5" style="stroke:#181818;stroke-width:0.5;" width="71" x="50" y="5"/><text fill="#000000" font-family="sans-serif" font-size="14" lengthAdjust="spacing" textLength="57" x="57" y="26.5332">Service()</text><rect fill="#E2E2F0" height="31.6094" rx="2.5" ry="2.5" style="stroke:#181818;stroke-width:0.5;" width="71" x="50" y="1849.25"/><text fill="#000000" font-family="sans-serif" font-size="14" lengthAdjust="spacing" textLength="57" x="57" y="1870.7832">Service()</text><rect fill="#E2E2F0" height="31.6094" rx="2.5" ry="2.5" style="stroke:#181818;stroke-width:0.5;" width="120" x="525.5" y="5"/><text fill="#000000" font-family="sans-serif" font-size="14" lengthAdjust="spacing" textLength="106" x="532.5" y="26.5332">RegisterDevice()</text><rect fill="#E2E2F0" height="31.6094" rx="2.5" ry="2.5" style="stroke:#181818;stroke-width:0.5;" width="120" x="525.5" y="1849.25"/><text fill="#000000" font-family="sans-serif" font-size="14" lengthAdjust="spacing" textLength="106" x="532.5" y="1870.7832">RegisterDevice()</text><rect fill="#E2E2F0" height="31.6094" rx="2.5" ry="2.5" style="stroke:#181818;stroke-width:0.5;" width="182" x="1227.5" y="5"/><text fill="#000000" font-family="sans-serif" font-size="14" lengthAdjust="spacing" textLength="168" x="1234.5" y="26.5332">RetrieveFlagsFromSADB()</text><rect fill="#E2E2F0" height="31.6094" rx="2.5" ry="2.5" style="stroke:#181818;stroke-width:0.5;" width="182" x="1227.5" y="1849.25"/><text fill="#000000" font-family="sans-serif" font-size="14" lengthAdjust="spacing" textLength="168" x="1234.5" y="1870.7832">RetrieveFlagsFromSADB()</text><rect fill="#E2E2F0" height="31.6094" rx="2.5" ry="2.5" style="stroke:#181818;stroke-width:0.5;" width="193" x="1419.5" y="5"/><text fill="#000000" font-family="sans-serif" font-size="14" lengthAdjust="spacing" textLength="179" x="1426.5" y="26.5332">RetrieveMOOSKeyByGDID()</text><rect fill="#E2E2F0" height="31.6094" rx="2.5" ry="2.5" style="stroke:#181818;stroke-width:0.5;" width="193" x="1419.5" y="1849.25"/><text fill="#000000" font-family="sans-serif" font-size="14" lengthAdjust="spacing" textLength="179" x="1426.5" y="1870.7832">RetrieveMOOSKeyByGDID()</text><rect fill="#E2E2F0" height="31.6094" rx="2.5" ry="2.5" style="stroke:#181818;stroke-width:0.5;" width="197" x="1622.5" y="5"/><text fill="#000000" font-family="sans-serif" font-size="14" lengthAdjust="spacing" textLength="183" x="1629.5" y="26.5332">RegisterPrimaryContactInfo()</text><rect fill="#E2E2F0" height="31.6094" rx="2.5" ry="2.5" style="stroke:#181818;stroke-width:0.5;" width="197" x="1622.5" y="1849.25"/><text fill="#000000" font-family="sans-serif" font-size="14" lengthAdjust="spacing" textLength="183" x="1629.5" y="1870.7832">RegisterPrimaryContactInfo()</text><rect fill="#E2E2F0" height="31.6094" rx="2.5" ry="2.5" style="stroke:#181818;stroke-width:0.5;" width="217" x="1829.5" y="5"/><text fill="#000000" font-family="sans-serif" font-size="14" lengthAdjust="spacing" textLength="203" x="1836.5" y="26.5332">RegisterSecondaryContactInfo()</text><rect fill="#E2E2F0" height="31.6094" rx="2.5" ry="2.5" style="stroke:#181818;stroke-width:0.5;" width="217" x="1829.5" y="1849.25"/><text fill="#000000" font-family="sans-serif" font-size="14" lengthAdjust="spacing" textLength="203" x="1836.5" y="1870.7832">RegisterSecondaryContactInfo()</text><rect fill="#E2E2F0" height="31.6094" rx="2.5" ry="2.5" style="stroke:#181818;stroke-width:0.5;" width="194" x="2179" y="5"/><text fill="#000000" font-family="sans-serif" font-size="14" lengthAdjust="spacing" textLength="180" x="2186" y="26.5332">RegisterContactPersonInfo()</text><rect fill="#E2E2F0" height="31.6094" rx="2.5" ry="2.5" style="stroke:#181818;stroke-width:0.5;" width="194" x="2179" y="1849.25"/><text fill="#000000" font-family="sans-serif" font-size="14" lengthAdjust="spacing" textLength="180" x="2186" y="1870.7832">RegisterContactPersonInfo()</text><rect fill="#E2E2F0" height="31.6094" rx="2.5" ry="2.5" style="stroke:#181818;stroke-width:0.5;" width="201" x="2383" y="5"/><text fill="#000000" font-family="sans-serif" font-size="14" lengthAdjust="spacing" textLength="187" x="2390" y="26.5332">RegisterCustomerOrgSiteInf()</text><rect fill="#E2E2F0" height="31.6094" rx="2.5" ry="2.5" style="stroke:#181818;stroke-width:0.5;" width="201" x="2383" y="1849.25"/><text fill="#000000" font-family="sans-serif" font-size="14" lengthAdjust="spacing" textLength="187" x="2390" y="1870.7832">RegisterCustomerOrgSiteInf()</text><rect fill="#E2E2F0" height="31.6094" rx="2.5" ry="2.5" style="stroke:#181818;stroke-width:0.5;" width="147" x="2594" y="5"/><text fill="#000000" font-family="sans-serif" font-size="14" lengthAdjust="spacing" textLength="133" x="2601" y="26.5332">RegisterPartnerInfo()</text><rect fill="#E2E2F0" height="31.6094" rx="2.5" ry="2.5" style="stroke:#181818;stroke-width:0.5;" width="147" x="2594" y="1849.25"/><text fill="#000000" font-family="sans-serif" font-size="14" lengthAdjust="spacing" textLength="133" x="2601" y="1870.7832">RegisterPartnerInfo()</text><rect fill="#E2E2F0" height="31.6094" rx="2.5" ry="2.5" style="stroke:#181818;stroke-width:0.5;" width="187" x="2751" y="5"/><text fill="#000000" font-family="sans-serif" font-size="14" lengthAdjust="spacing" textLength="173" x="2758" y="26.5332">LinkContractAndWarranty()</text><rect fill="#E2E2F0" height="31.6094" rx="2.5" ry="2.5" style="stroke:#181818;stroke-width:0.5;" width="187" x="2751" y="1849.25"/><text fill="#000000" font-family="sans-serif" font-size="14" lengthAdjust="spacing" textLength="173" x="2758" y="1870.7832">LinkContractAndWarranty()</text><rect fill="#E2E2F0" height="31.6094" rx="2.5" ry="2.5" style="stroke:#181818;stroke-width:0.5;" width="267" x="2948" y="5"/><text fill="#000000" font-family="sans-serif" font-size="14" lengthAdjust="spacing" textLength="253" x="2955" y="26.5332">SetCompleteRegistrationFlagWithTrue()</text><rect fill="#E2E2F0" height="31.6094" rx="2.5" ry="2.5" style="stroke:#181818;stroke-width:0.5;" width="267" x="2948" y="1849.25"/><text fill="#000000" font-family="sans-serif" font-size="14" lengthAdjust="spacing" textLength="253" x="2955" y="1870.7832">SetCompleteRegistrationFlagWithTrue()</text><path d="M30,54.6094 L91,54.6094 L91,62.9609 L81,72.9609 L30,72.9609 L30,54.6094 " fill="#F5F5F5" style="stroke:#808080;stroke-width:1.5;"/><rect fill="none" height="157.5938" style="stroke:#808080;stroke-width:1.5;" width="1389.5" x="30" y="54.6094"/><text fill="#000000" font-family="sans-serif" font-size="13" font-weight="bold" lengthAdjust="spacing" textLength="16" x="45" y="69.1045">alt</text><text fill="#000000" font-family="sans-serif" font-size="11" font-weight="bold" lengthAdjust="spacing" textLength="177" x="106" y="68.0283">[Retrieving the flags from SADB]</text><polygon fill="#00008B" points="1306.5,91.3125,1316.5,95.3125,1306.5,99.3125,1310.5,95.3125" style="stroke:#00008B;stroke-width:1.0;"/><line style="stroke:#00008B;stroke-width:1.0;" x1="585.5" x2="1312.5" y1="95.3125" y2="95.3125"/><text fill="#000000" font-family="sans-serif" font-size="13" lengthAdjust="spacing" textLength="709" x="592.5" y="90.4561">calling to get SupportAutomationCommunicationEnabledFlag and SupportAutomationRegistrationCompleteFlag from SADB</text><polygon fill="#00008B" points="596.5,121.6641,586.5,125.6641,596.5,129.6641,592.5,125.6641" style="stroke:#00008B;stroke-width:1.0;"/><line style="stroke:#00008B;stroke-width:1.0;stroke-dasharray:2.0,2.0;" x1="590.5" x2="1317.5" y1="125.6641" y2="125.6641"/><text fill="#000000" font-family="sans-serif" font-size="13" lengthAdjust="spacing" textLength="151" x="602.5" y="120.8076">return the bool in  respose</text><path d="M40,140.6641 L101,140.6641 L101,149.0156 L91,159.0156 L40,159.0156 L40,140.6641 " fill="#F5F5F5" style="stroke:#808080;stroke-width:1.5;"/><rect fill="none" height="64.5391" style="stroke:#808080;stroke-width:1.5;" width="615.5" x="40" y="140.6641"/><text fill="#000000" font-family="sans-serif" font-size="13" font-weight="bold" lengthAdjust="spacing" textLength="16" x="55" y="155.1592">alt</text><text fill="#000000" font-family="sans-serif" font-size="11" font-weight="bold" lengthAdjust="spacing" textLength="193" x="116" y="154.083">[!RetrieveFlagsFromSADB(hwgdid)]</text><polygon fill="#00008B" points="96.5,177.3672,86.5,181.3672,96.5,185.3672,92.5,181.3672" style="stroke:#00008B;stroke-width:1.0;"/><line style="stroke:#00008B;stroke-width:1.0;stroke-dasharray:2.0,2.0;" x1="90.5" x2="584.5" y1="181.3672" y2="181.3672"/><text fill="#000000" font-family="sans-serif" font-size="13" lengthAdjust="spacing" textLength="476" x="102.5" y="176.5107">return statusResponse:StatusResponse.RetrieveFlagFromSADBTimeoutException</text><line style="stroke:#808080;stroke-width:1.0;stroke-dasharray:2.0,2.0;" x1="40" x2="655.5" y1="190.3672" y2="190.3672"/><text fill="#000000" font-family="sans-serif" font-size="11" font-weight="bold" lengthAdjust="spacing" textLength="54" x="45" y="201.7861">[Proceed]</text><line style="stroke:#00008B;stroke-width:1.0;" x1="585.5" x2="627.5" y1="241.5547" y2="241.5547"/><line style="stroke:#00008B;stroke-width:1.0;" x1="627.5" x2="627.5" y1="241.5547" y2="254.5547"/><line style="stroke:#00008B;stroke-width:1.0;" x1="586.5" x2="627.5" y1="254.5547" y2="254.5547"/><polygon fill="#00008B" points="596.5,250.5547,586.5,254.5547,596.5,258.5547,592.5,254.5547" style="stroke:#00008B;stroke-width:1.0;"/><text fill="#000000" font-family="sans-serif" font-size="13" lengthAdjust="spacing" textLength="408" x="592.5" y="236.6982">do the logging:"Start to Retrieve mooskey from SADB. DBID = " + dbid</text><polygon fill="#00008B" points="1504,306.2578,1514,310.2578,1504,314.2578,1508,310.2578" style="stroke:#00008B;stroke-width:1.0;"/><line style="stroke:#00008B;stroke-width:1.0;" x1="585.5" x2="1510" y1="310.2578" y2="310.2578"/><text fill="#000000" font-family="sans-serif" font-size="13" lengthAdjust="spacing" textLength="258" x="592.5" y="305.4014">Calling to get the "MOOSKEY" using hwgdid</text><polygon fill="#00008B" points="596.5,336.6094,586.5,340.6094,596.5,344.6094,592.5,340.6094" style="stroke:#00008B;stroke-width:1.0;"/><line style="stroke:#00008B;stroke-width:1.0;stroke-dasharray:2.0,2.0;" x1="590.5" x2="1515" y1="340.6094" y2="340.6094"/><text fill="#000000" font-family="sans-serif" font-size="13" lengthAdjust="spacing" textLength="183" x="602.5" y="335.7529">returing the mooskey as integer</text><path d="M20,355.6094 L81,355.6094 L81,363.9609 L71,373.9609 L20,373.9609 L20,355.6094 " fill="#F5F5F5" style="stroke:#808080;stroke-width:1.5;"/><rect fill="none" height="1477.6406" style="stroke:#808080;stroke-width:1.5;" width="3205" x="20" y="355.6094"/><text fill="#000000" font-family="sans-serif" font-size="13" font-weight="bold" lengthAdjust="spacing" textLength="16" x="35" y="370.1045">alt</text><text fill="#000000" font-family="sans-serif" font-size="11" font-weight="bold" lengthAdjust="spacing" textLength="75" x="96" y="369.0283">[Mooskey=-1]</text><polygon fill="#00008B" points="96.5,392.3125,86.5,396.3125,96.5,400.3125,92.5,396.3125" style="stroke:#00008B;stroke-width:1.0;"/><line style="stroke:#00008B;stroke-width:1.0;stroke-dasharray:2.0,2.0;" x1="90.5" x2="584.5" y1="396.3125" y2="396.3125"/><text fill="#000000" font-family="sans-serif" font-size="13" lengthAdjust="spacing" textLength="316" x="102.5" y="391.4561">return StatusResponse.NullMooskeyReturnFromSADB</text><line style="stroke:#808080;stroke-width:1.0;stroke-dasharray:2.0,2.0;" x1="20" x2="3225" y1="405.3125" y2="405.3125"/><text fill="#000000" font-family="sans-serif" font-size="11" font-weight="bold" lengthAdjust="spacing" textLength="54" x="25" y="416.7314">[Proceed]</text><polygon fill="#00008B" points="1709,438.5,1719,442.5,1709,446.5,1713,442.5" style="stroke:#00008B;stroke-width:1.0;"/><line style="stroke:#00008B;stroke-width:1.0;" x1="585.5" x2="1715" y1="442.5" y2="442.5"/><text fill="#000000" font-family="sans-serif" font-size="13" lengthAdjust="spacing" textLength="336" x="592.5" y="437.6436">Registration of primary contact info using HPPID,HpsaReg</text><polygon fill="#00008B" points="2264,468.8516,2274,472.8516,2264,476.8516,2268,472.8516" style="stroke:#00008B;stroke-width:1.0;"/><line style="stroke:#00008B;stroke-width:1.0;" x1="1721" x2="2270" y1="472.8516" y2="472.8516"/><text fill="#000000" font-family="sans-serif" font-size="13" lengthAdjust="spacing" textLength="309" x="1728" y="467.9951">Registration of person contact info with true indication</text><polygon fill="#00008B" points="1732,499.2031,1722,503.2031,1732,507.2031,1728,503.2031" style="stroke:#00008B;stroke-width:1.0;"/><line style="stroke:#00008B;stroke-width:1.0;stroke-dasharray:2.0,2.0;" x1="1726" x2="2275" y1="503.2031" y2="503.2031"/><text fill="#000000" font-family="sans-serif" font-size="13" lengthAdjust="spacing" textLength="132" x="1738" y="498.3467">return bool in response</text><polygon fill="#00008B" points="596.5,529.5547,586.5,533.5547,596.5,537.5547,592.5,533.5547" style="stroke:#00008B;stroke-width:1.0;"/><line style="stroke:#00008B;stroke-width:1.0;stroke-dasharray:2.0,2.0;" x1="590.5" x2="1720" y1="533.5547" y2="533.5547"/><text fill="#000000" font-family="sans-serif" font-size="13" lengthAdjust="spacing" textLength="140" x="602.5" y="528.6982">return the bool response</text><path d="M40,548.5547 L101,548.5547 L101,556.9063 L91,566.9063 L40,566.9063 L40,548.5547 " fill="#F5F5F5" style="stroke:#808080;stroke-width:1.5;"/><rect fill="none" height="64.5391" style="stroke:#808080;stroke-width:1.5;" width="615.5" x="40" y="548.5547"/><text fill="#000000" font-family="sans-serif" font-size="13" font-weight="bold" lengthAdjust="spacing" textLength="16" x="55" y="563.0498">alt</text><text fill="#000000" font-family="sans-serif" font-size="11" font-weight="bold" lengthAdjust="spacing" textLength="272" x="116" y="561.9736">[!RegisterSecondaryContactInfo(HPPID, HpsaReg)]</text><polygon fill="#00008B" points="96.5,585.2578,86.5,589.2578,96.5,593.2578,92.5,589.2578" style="stroke:#00008B;stroke-width:1.0;"/><line style="stroke:#00008B;stroke-width:1.0;" x1="90.5" x2="584.5" y1="589.2578" y2="589.2578"/><text fill="#000000" font-family="sans-serif" font-size="13" lengthAdjust="spacing" textLength="265" x="102.5" y="584.4014">return  StatusResponse.SetContactInfoFailure</text><line style="stroke:#808080;stroke-width:1.0;stroke-dasharray:2.0,2.0;" x1="40" x2="655.5" y1="598.2578" y2="598.2578"/><text fill="#000000" font-family="sans-serif" font-size="11" font-weight="bold" lengthAdjust="spacing" textLength="54" x="45" y="609.6768">[Proceed]</text><path d="M30,627.0938 L91,627.0938 L91,635.4453 L81,645.4453 L30,645.4453 L30,627.0938 " fill="#F5F5F5" style="stroke:#808080;stroke-width:1.5;"/><rect fill="none" height="218.2969" style="stroke:#808080;stroke-width:1.5;" width="2353" x="30" y="627.0938"/><text fill="#000000" font-family="sans-serif" font-size="13" font-weight="bold" lengthAdjust="spacing" textLength="16" x="45" y="641.5889">alt</text><text fill="#000000" font-family="sans-serif" font-size="11" font-weight="bold" lengthAdjust="spacing" textLength="162" x="106" y="640.5127">[HpsaReg.Contacts.Count &gt; 1]</text><polygon fill="#00008B" points="1926,663.7969,1936,667.7969,1926,671.7969,1930,667.7969" style="stroke:#00008B;stroke-width:1.0;"/><line style="stroke:#00008B;stroke-width:1.0;" x1="585.5" x2="1932" y1="667.7969" y2="667.7969"/><text fill="#000000" font-family="sans-serif" font-size="13" lengthAdjust="spacing" textLength="218" x="592.5" y="662.9404">Registration of secondary contact info</text><polygon fill="#00008B" points="2264,694.1484,2274,698.1484,2264,702.1484,2268,698.1484" style="stroke:#00008B;stroke-width:1.0;"/><line style="stroke:#00008B;stroke-width:1.0;" x1="1938" x2="2270" y1="698.1484" y2="698.1484"/><text fill="#000000" font-family="sans-serif" font-size="13" lengthAdjust="spacing" textLength="314" x="1945" y="693.292">Registration of person contact info with false indication</text><polygon fill="#00008B" points="1949,724.5,1939,728.5,1949,732.5,1945,728.5" style="stroke:#00008B;stroke-width:1.0;"/><line style="stroke:#00008B;stroke-width:1.0;stroke-dasharray:2.0,2.0;" x1="1943" x2="2275" y1="728.5" y2="728.5"/><text fill="#000000" font-family="sans-serif" font-size="13" lengthAdjust="spacing" textLength="132" x="1955" y="723.6436">return bool in response</text><polygon fill="#00008B" points="596.5,754.8516,586.5,758.8516,596.5,762.8516,592.5,758.8516" style="stroke:#00008B;stroke-width:1.0;"/><line style="stroke:#00008B;stroke-width:1.0;stroke-dasharray:2.0,2.0;" x1="590.5" x2="1937" y1="758.8516" y2="758.8516"/><text fill="#000000" font-family="sans-serif" font-size="13" lengthAdjust="spacing" textLength="140" x="602.5" y="753.9951">return the bool response</text><path d="M40,773.8516 L101,773.8516 L101,782.2031 L91,792.2031 L40,792.2031 L40,773.8516 " fill="#F5F5F5" style="stroke:#808080;stroke-width:1.5;"/><rect fill="none" height="64.5391" style="stroke:#808080;stroke-width:1.5;" width="615.5" x="40" y="773.8516"/><text fill="#000000" font-family="sans-serif" font-size="13" font-weight="bold" lengthAdjust="spacing" textLength="16" x="55" y="788.3467">alt</text><text fill="#000000" font-family="sans-serif" font-size="11" font-weight="bold" lengthAdjust="spacing" textLength="272" x="116" y="787.2705">[!RegisterSecondaryContactInfo(HPPID, HpsaReg)]</text><polygon fill="#00008B" points="96.5,810.5547,86.5,814.5547,96.5,818.5547,92.5,814.5547" style="stroke:#00008B;stroke-width:1.0;"/><line style="stroke:#00008B;stroke-width:1.0;stroke-dasharray:2.0,2.0;" x1="90.5" x2="584.5" y1="814.5547" y2="814.5547"/><text fill="#000000" font-family="sans-serif" font-size="13" lengthAdjust="spacing" textLength="265" x="102.5" y="809.6982">return  StatusResponse.SetContactInfoFailure</text><line style="stroke:#808080;stroke-width:1.0;stroke-dasharray:2.0,2.0;" x1="40" x2="655.5" y1="823.5547" y2="823.5547"/><text fill="#000000" font-family="sans-serif" font-size="11" font-weight="bold" lengthAdjust="spacing" textLength="54" x="45" y="834.9736">[proceed]</text><polygon fill="#00008B" points="2471.5,870.7422,2481.5,874.7422,2471.5,878.7422,2475.5,874.7422" style="stroke:#00008B;stroke-width:1.0;"/><line style="stroke:#00008B;stroke-width:1.0;" x1="585.5" x2="2477.5" y1="874.7422" y2="874.7422"/><text fill="#000000" font-family="sans-serif" font-size="13" lengthAdjust="spacing" textLength="278" x="592.5" y="869.8857">Call for the Registration of customer org site info</text><polygon fill="#00008B" points="596.5,901.0938,586.5,905.0938,596.5,909.0938,592.5,905.0938" style="stroke:#00008B;stroke-width:1.0;"/><line style="stroke:#00008B;stroke-width:1.0;stroke-dasharray:2.0,2.0;" x1="590.5" x2="2482.5" y1="905.0938" y2="905.0938"/><text fill="#000000" font-family="sans-serif" font-size="13" lengthAdjust="spacing" textLength="133" x="602.5" y="900.2373">return the bool reponse</text><path d="M40,920.0938 L101,920.0938 L101,928.4453 L91,938.4453 L40,938.4453 L40,920.0938 " fill="#F5F5F5" style="stroke:#808080;stroke-width:1.5;"/><rect fill="none" height="64.5391" style="stroke:#808080;stroke-width:1.5;" width="615.5" x="40" y="920.0938"/><text fill="#000000" font-family="sans-serif" font-size="13" font-weight="bold" lengthAdjust="spacing" textLength="16" x="55" y="934.5889">alt</text><text fill="#000000" font-family="sans-serif" font-size="11" font-weight="bold" lengthAdjust="spacing" textLength="269" x="116" y="933.5127">[!RegisterCustomerOrgSiteInfo(HPPID, HpsaReg)]</text><polygon fill="#00008B" points="96.5,956.7969,86.5,960.7969,96.5,964.7969,92.5,960.7969" style="stroke:#00008B;stroke-width:1.0;"/><line style="stroke:#00008B;stroke-width:1.0;stroke-dasharray:2.0,2.0;" x1="90.5" x2="584.5" y1="960.7969" y2="960.7969"/><text fill="#000000" font-family="sans-serif" font-size="13" lengthAdjust="spacing" textLength="239" x="102.5" y="955.9404">return StatusResponse.SetSiteInfoFailure</text><line style="stroke:#808080;stroke-width:1.0;stroke-dasharray:2.0,2.0;" x1="40" x2="655.5" y1="969.7969" y2="969.7969"/><text fill="#000000" font-family="sans-serif" font-size="11" font-weight="bold" lengthAdjust="spacing" textLength="54" x="45" y="981.2158">[Proceed]</text><line style="stroke:#00008B;stroke-width:1.0;" x1="585.5" x2="627.5" y1="1013.9844" y2="1013.9844"/><line style="stroke:#00008B;stroke-width:1.0;" x1="627.5" x2="627.5" y1="1013.9844" y2="1026.9844"/><line style="stroke:#00008B;stroke-width:1.0;" x1="586.5" x2="627.5" y1="1026.9844" y2="1026.9844"/><polygon fill="#00008B" points="596.5,1022.9844,586.5,1026.9844,596.5,1030.9844,592.5,1026.9844" style="stroke:#00008B;stroke-width:1.0;"/><text fill="#000000" font-family="sans-serif" font-size="13" lengthAdjust="spacing" textLength="196" x="592.5" y="1009.1279">Checking for the default partner ID</text><path d="M40,1041.9844 L101,1041.9844 L101,1050.3359 L91,1060.3359 L40,1060.3359 L40,1041.9844 " fill="#F5F5F5" style="stroke:#808080;stroke-width:1.5;"/><rect fill="none" height="107.8906" style="stroke:#808080;stroke-width:1.5;" width="920.5" x="40" y="1041.9844"/><text fill="#000000" font-family="sans-serif" font-size="13" font-weight="bold" lengthAdjust="spacing" textLength="16" x="55" y="1056.4795">alt</text><text fill="#000000" font-family="sans-serif" font-size="11" font-weight="bold" lengthAdjust="spacing" textLength="84" x="116" y="1055.4033">[IsNullorEmpty]</text><polygon fill="#00008B" points="96.5,1078.6875,86.5,1082.6875,96.5,1086.6875,92.5,1082.6875" style="stroke:#00008B;stroke-width:1.0;"/><line style="stroke:#00008B;stroke-width:1.0;stroke-dasharray:2.0,2.0;" x1="90.5" x2="584.5" y1="1082.6875" y2="1082.6875"/><text fill="#000000" font-family="sans-serif" font-size="13" lengthAdjust="spacing" textLength="258" x="102.5" y="1077.8311">return StatusResponse.SetPartnerInfoFailure</text><line style="stroke:#808080;stroke-width:1.0;stroke-dasharray:2.0,2.0;" x1="40" x2="960.5" y1="1091.6875" y2="1091.6875"/><text fill="#000000" font-family="sans-serif" font-size="11" font-weight="bold" lengthAdjust="spacing" textLength="54" x="45" y="1103.1064">[Proceed]</text><line style="stroke:#00008B;stroke-width:1.0;" x1="585.5" x2="627.5" y1="1128.875" y2="1128.875"/><line style="stroke:#00008B;stroke-width:1.0;" x1="627.5" x2="627.5" y1="1128.875" y2="1141.875"/><line style="stroke:#00008B;stroke-width:1.0;" x1="586.5" x2="627.5" y1="1141.875" y2="1141.875"/><polygon fill="#00008B" points="596.5,1137.875,586.5,1141.875,596.5,1145.875,592.5,1141.875" style="stroke:#00008B;stroke-width:1.0;"/><text fill="#000000" font-family="sans-serif" font-size="13" lengthAdjust="spacing" textLength="356" x="592.5" y="1124.0186">DefaultPartnerID = StaTSBridgeConfiguration.DefaultPartnerID</text><line style="stroke:#00008B;stroke-width:1.0;" x1="585.5" x2="627.5" y1="1195.5781" y2="1195.5781"/><line style="stroke:#00008B;stroke-width:1.0;" x1="627.5" x2="627.5" y1="1195.5781" y2="1208.5781"/><line style="stroke:#00008B;stroke-width:1.0;" x1="586.5" x2="627.5" y1="1208.5781" y2="1208.5781"/><polygon fill="#00008B" points="596.5,1204.5781,586.5,1208.5781,596.5,1212.5781,592.5,1208.5781" style="stroke:#00008B;stroke-width:1.0;"/><text fill="#000000" font-family="sans-serif" font-size="13" lengthAdjust="spacing" textLength="296" x="592.5" y="1174.3701">setting "salesPartnerID" to DefaultId if null or empty</text><text fill="#000000" font-family="sans-serif" font-size="13" lengthAdjust="spacing" textLength="218" x="596.5" y="1190.7217">else to HpsaReg.CPServiceProviderID</text><line style="stroke:#00008B;stroke-width:1.0;" x1="585.5" x2="627.5" y1="1255.2813" y2="1255.2813"/><line style="stroke:#00008B;stroke-width:1.0;" x1="627.5" x2="627.5" y1="1255.2813" y2="1268.2813"/><line style="stroke:#00008B;stroke-width:1.0;" x1="586.5" x2="627.5" y1="1268.2813" y2="1268.2813"/><polygon fill="#00008B" points="596.5,1264.2813,586.5,1268.2813,596.5,1272.2813,592.5,1268.2813" style="stroke:#00008B;stroke-width:1.0;"/><text fill="#000000" font-family="sans-serif" font-size="13" lengthAdjust="spacing" textLength="314" x="592.5" y="1234.0732">setting "supportPartnerID"  to DefaultID if null or empty</text><text fill="#000000" font-family="sans-serif" font-size="13" lengthAdjust="spacing" textLength="221" x="596.5" y="1250.4248">else to HpsaReg.CPSupportProviderID</text><polygon fill="#00008B" points="2655.5,1294.6328,2665.5,1298.6328,2655.5,1302.6328,2659.5,1298.6328" style="stroke:#00008B;stroke-width:1.0;"/><line style="stroke:#00008B;stroke-width:1.0;" x1="585.5" x2="2661.5" y1="1298.6328" y2="1298.6328"/><text fill="#000000" font-family="sans-serif" font-size="13" lengthAdjust="spacing" textLength="141" x="592.5" y="1293.7764">Calling to register for the</text><text fill="#000000" font-family="sans-serif" font-size="13" font-weight="bold" lengthAdjust="spacing" textLength="94" x="737.5" y="1293.7764">"sales partner"</text><text fill="#000000" font-family="sans-serif" font-size="13" lengthAdjust="spacing" textLength="264" x="835.5" y="1293.7764">info with HPPID, salesPartnerID, salesPartner</text><polygon fill="#00008B" points="596.5,1324.9844,586.5,1328.9844,596.5,1332.9844,592.5,1328.9844" style="stroke:#00008B;stroke-width:1.0;"/><line style="stroke:#00008B;stroke-width:1.0;stroke-dasharray:2.0,2.0;" x1="590.5" x2="2666.5" y1="1328.9844" y2="1328.9844"/><text fill="#000000" font-family="sans-serif" font-size="13" lengthAdjust="spacing" textLength="206" x="602.5" y="1324.1279">returning hpsaStatusResponseType</text><path d="M40,1343.9844 L101,1343.9844 L101,1352.3359 L91,1362.3359 L40,1362.3359 L40,1343.9844 " fill="#F5F5F5" style="stroke:#808080;stroke-width:1.5;"/><rect fill="none" height="64.5391" style="stroke:#808080;stroke-width:1.5;" width="615.5" x="40" y="1343.9844"/><text fill="#000000" font-family="sans-serif" font-size="13" font-weight="bold" lengthAdjust="spacing" textLength="16" x="55" y="1358.4795">alt</text><text fill="#000000" font-family="sans-serif" font-size="11" font-weight="bold" lengthAdjust="spacing" textLength="255" x="116" y="1357.4033">[statusResponse != StatusResponse.Success]</text><polygon fill="#00008B" points="96.5,1380.6875,86.5,1384.6875,96.5,1388.6875,92.5,1384.6875" style="stroke:#00008B;stroke-width:1.0;"/><line style="stroke:#00008B;stroke-width:1.0;stroke-dasharray:2.0,2.0;" x1="90.5" x2="584.5" y1="1384.6875" y2="1384.6875"/><text fill="#000000" font-family="sans-serif" font-size="13" lengthAdjust="spacing" textLength="344" x="102.5" y="1379.8311">return statusResponse:as registration of SalesPartner failed</text><line style="stroke:#808080;stroke-width:1.0;stroke-dasharray:2.0,2.0;" x1="40" x2="655.5" y1="1393.6875" y2="1393.6875"/><text fill="#000000" font-family="sans-serif" font-size="11" font-weight="bold" lengthAdjust="spacing" textLength="54" x="45" y="1405.1064">[Proceed]</text><polygon fill="#00008B" points="2655.5,1433.875,2665.5,1437.875,2655.5,1441.875,2659.5,1437.875" style="stroke:#00008B;stroke-width:1.0;"/><line style="stroke:#00008B;stroke-width:1.0;" x1="585.5" x2="2661.5" y1="1437.875" y2="1437.875"/><text fill="#000000" font-family="sans-serif" font-size="13" lengthAdjust="spacing" textLength="123" x="592.5" y="1433.0186">Calling to register the</text><text fill="#000000" font-family="sans-serif" font-size="13" font-weight="bold" lengthAdjust="spacing" textLength="110" x="719.5" y="1433.0186">"support Partner"</text><text fill="#000000" font-family="sans-serif" font-size="13" lengthAdjust="spacing" textLength="288" x="833.5" y="1433.0186">info with HPPID, supportPartnerID, supportPartner</text><polygon fill="#00008B" points="596.5,1464.2266,586.5,1468.2266,596.5,1472.2266,592.5,1468.2266" style="stroke:#00008B;stroke-width:1.0;"/><line style="stroke:#00008B;stroke-width:1.0;stroke-dasharray:2.0,2.0;" x1="590.5" x2="2666.5" y1="1468.2266" y2="1468.2266"/><text fill="#000000" font-family="sans-serif" font-size="13" lengthAdjust="spacing" textLength="206" x="602.5" y="1463.3701">returning hpsaStatusResponseType</text><path d="M40,1483.2266 L101,1483.2266 L101,1491.5781 L91,1501.5781 L40,1501.5781 L40,1483.2266 " fill="#F5F5F5" style="stroke:#808080;stroke-width:1.5;"/><rect fill="none" height="64.5391" style="stroke:#808080;stroke-width:1.5;" width="615.5" x="40" y="1483.2266"/><text fill="#000000" font-family="sans-serif" font-size="13" font-weight="bold" lengthAdjust="spacing" textLength="16" x="55" y="1497.7217">alt</text><text fill="#000000" font-family="sans-serif" font-size="11" font-weight="bold" lengthAdjust="spacing" textLength="255" x="116" y="1496.6455">[statusResponse != StatusResponse.Success]</text><polygon fill="#00008B" points="96.5,1519.9297,86.5,1523.9297,96.5,1527.9297,92.5,1523.9297" style="stroke:#00008B;stroke-width:1.0;"/><line style="stroke:#00008B;stroke-width:1.0;stroke-dasharray:2.0,2.0;" x1="90.5" x2="584.5" y1="1523.9297" y2="1523.9297"/><text fill="#000000" font-family="sans-serif" font-size="13" lengthAdjust="spacing" textLength="360" x="102.5" y="1519.0732">return statusResponse:as registration of Support Partner failed</text><line style="stroke:#808080;stroke-width:1.0;stroke-dasharray:2.0,2.0;" x1="40" x2="655.5" y1="1532.9297" y2="1532.9297"/><text fill="#000000" font-family="sans-serif" font-size="11" font-weight="bold" lengthAdjust="spacing" textLength="54" x="45" y="1544.3486">[Proceed]</text><polygon fill="#00008B" points="2832.5,1573.1172,2842.5,1577.1172,2832.5,1581.1172,2836.5,1577.1172" style="stroke:#00008B;stroke-width:1.0;"/><line style="stroke:#00008B;stroke-width:1.0;" x1="585.5" x2="2838.5" y1="1577.1172" y2="1577.1172"/><text fill="#000000" font-family="sans-serif" font-size="13" lengthAdjust="spacing" textLength="196" x="592.5" y="1572.2607">Linking the contract and Warranty</text><polygon fill="#00008B" points="596.5,1603.4688,586.5,1607.4688,596.5,1611.4688,592.5,1607.4688" style="stroke:#00008B;stroke-width:1.0;"/><line style="stroke:#00008B;stroke-width:1.0;stroke-dasharray:2.0,2.0;" x1="590.5" x2="2843.5" y1="1607.4688" y2="1607.4688"/><text fill="#000000" font-family="sans-serif" font-size="13" lengthAdjust="spacing" textLength="171" x="602.5" y="1602.6123">returning the response in bool</text><path d="M40,1622.4688 L101,1622.4688 L101,1630.8203 L91,1640.8203 L40,1640.8203 L40,1622.4688 " fill="#F5F5F5" style="stroke:#808080;stroke-width:1.5;"/><rect fill="none" height="64.5391" style="stroke:#808080;stroke-width:1.5;" width="615.5" x="40" y="1622.4688"/><text fill="#000000" font-family="sans-serif" font-size="13" font-weight="bold" lengthAdjust="spacing" textLength="16" x="55" y="1636.9639">alt</text><text fill="#000000" font-family="sans-serif" font-size="11" font-weight="bold" lengthAdjust="spacing" textLength="246" x="116" y="1635.8877">[!LinkContractAndWarranty(HPPID, HpsaReg)]</text><polygon fill="#00008B" points="96.5,1659.1719,86.5,1663.1719,96.5,1667.1719,92.5,1663.1719" style="stroke:#00008B;stroke-width:1.0;"/><line style="stroke:#00008B;stroke-width:1.0;stroke-dasharray:2.0,2.0;" x1="90.5" x2="584.5" y1="1663.1719" y2="1663.1719"/><text fill="#000000" font-family="sans-serif" font-size="13" lengthAdjust="spacing" textLength="325" x="102.5" y="1658.3154">return StatusResponse.LinkContractAndWarrantyFailure</text><line style="stroke:#808080;stroke-width:1.0;stroke-dasharray:2.0,2.0;" x1="40" x2="655.5" y1="1672.1719" y2="1672.1719"/><text fill="#000000" font-family="sans-serif" font-size="11" font-weight="bold" lengthAdjust="spacing" textLength="54" x="45" y="1683.5908">[Proceed]</text><polygon fill="#00008B" points="3069.5,1712.3594,3079.5,1716.3594,3069.5,1720.3594,3073.5,1716.3594" style="stroke:#00008B;stroke-width:1.0;"/><line style="stroke:#00008B;stroke-width:1.0;" x1="585.5" x2="3075.5" y1="1716.3594" y2="1716.3594"/><text fill="#000000" font-family="sans-serif" font-size="13" lengthAdjust="spacing" textLength="264" x="592.5" y="1711.5029">Setting CompleteRegistrationFlag with HPPID</text><polygon fill="#00008B" points="596.5,1742.7109,586.5,1746.7109,596.5,1750.7109,592.5,1746.7109" style="stroke:#00008B;stroke-width:1.0;"/><line style="stroke:#00008B;stroke-width:1.0;stroke-dasharray:2.0,2.0;" x1="590.5" x2="3080.5" y1="1746.7109" y2="1746.7109"/><text fill="#000000" font-family="sans-serif" font-size="13" lengthAdjust="spacing" textLength="171" x="602.5" y="1741.8545">returning the response in bool</text><path d="M40,1761.7109 L101,1761.7109 L101,1770.0625 L91,1780.0625 L40,1780.0625 L40,1761.7109 " fill="#F5F5F5" style="stroke:#808080;stroke-width:1.5;"/><rect fill="none" height="64.5391" style="stroke:#808080;stroke-width:1.5;" width="615.5" x="40" y="1761.7109"/><text fill="#000000" font-family="sans-serif" font-size="13" font-weight="bold" lengthAdjust="spacing" textLength="16" x="55" y="1776.2061">alt</text><text fill="#000000" font-family="sans-serif" font-size="11" font-weight="bold" lengthAdjust="spacing" textLength="261" x="116" y="1775.1299">[!SetCompleteRegistrationFlagWithTrue(HPPID)]</text><polygon fill="#00008B" points="96.5,1798.4141,86.5,1802.4141,96.5,1806.4141,92.5,1802.4141" style="stroke:#00008B;stroke-width:1.0;"/><line style="stroke:#00008B;stroke-width:1.0;stroke-dasharray:2.0,2.0;" x1="90.5" x2="584.5" y1="1802.4141" y2="1802.4141"/><text fill="#000000" font-family="sans-serif" font-size="13" lengthAdjust="spacing" textLength="341" x="102.5" y="1797.5576">return StatusResponse.SetCompleteRegistrationFlagFailed</text><line style="stroke:#808080;stroke-width:1.0;stroke-dasharray:2.0,2.0;" x1="40" x2="655.5" y1="1811.4141" y2="1811.4141"/><text fill="#000000" font-family="sans-serif" font-size="11" font-weight="bold" lengthAdjust="spacing" textLength="197" x="45" y="1822.833">[send email to customer if enabled]</text><!--SRC=[jLPBR-Cs4BxhLypwqWPjKkpLs0I8xIHhT1z6521Oe1U67Cc49L8bgQJkhry-7KcMyZZi8OubVvpvvfi7vpTOjjh8cl-FOBO8f6cGA28ePdh7HME_rw3ntnRjgqkbvDDILbB1YgZTech7K5zuOVy4BgHYg0By6tdSZq1lb6oRBkv6aMaSeRlIVX4iOE-tt61UorsNX92cvzZnl94LGt4hsH0tCFY5brlp0wjAFcMPXHbEUKE4WLcEwf5J_Fra1aI3xlzuYoNN1jKAEnZ5XY2ZE3xYTKLAVQradL-k5WbRZ6E_Vl-U_utxnVvcjLubR3tkVADuJTH-AOKXrAn58TE1Pln0ZbGADdva8i28tA3IKdJnT0BlAmlLTrNcDbNsH3eW9uAmBmMgP3hGvtsihQoT8w8iaql1xecorMhsqN95XuapIrat5HeCJXGnN0gNXNjkjdUgFIILPXcf34JnkIXzFnGkNr3OX87BMAROwOKgva19LNcCX18Dv6tJI6KkMnkmzs2zrgtWr3zS2V9G8NDUWGXsZEvoItmzkkEuEBMUsLoXQPNmt1wah80B08MwaHez_m_ZbRPzAXbd9nbODBEMT3Aa3J6jldKMXCPvtdiywnfBjkvuZR8rL_zHR1pX32kDi56I8h8CRNpk8mjIiJcJdcmboz8ADfzP3yeutP9jgANKEzm_1ti6gyLw1USmWp-0FN1soCnpOdnpNFs06D65gkVBVauSQXPXCsYr-od8uC_K7JsJqSJ4rWCN1ajKtZDy3U_FJpyU2pXGx5jRLH5-wm59jhvCYNKpx-OUP05Dw6IWeTiiaK96zfytc_Ngpy-D9lQGDz5O4_JOXE_GleKdM-vWRBtRHnRhqfkWfvv6Z2RLb8hnH2-ZfNV0nBfxOR04vX2ffp9y5d6eek_Rm_5hmgjMOK_1M6JETRHw5aze-wMrpNy17myowoEDTABPayaVqEyJjI2ErfYg-aLLzIzGjL-Qxr2rUMxV86mKJix1jHKKzdvq58Ugq3ZZGQeIj9toIKObGtXm7Dz8UCTNnUlH7GUNZexLYuyAuanQRf7kN4Ubi1WMfBM4cd03mNhb-QsrQsUfhkh6x9y9m2I3pWqsIW8IWrLmcF1ks5bhT_b2SLQYpLB1opR8V3R4zaBHQ8oBPAP9XVg0cRaf60-k6V02X8t4PWdGnVAF0C_BWWxTiubRZkNwo9btTEmat5mTDrq_goC_CEueMkauYguQtftYAbR78KsV7Yv2d2bHiqz_FLnqUZ7MJ5-B_dFcTefkw_bxmNBhP_DktuGQxL-GyE7yAEqjfQZrgrUhssO6tPDtUDavmYjNfyEYJKKpeSr1bo0gR5vMPf30uHldxAtoGFRh1Ue7DQaHG5IfedEt8QOBdSPDqQzTQLUqq8eEGtJeD7hTg7QpAioegOtpdVDfmipah0eTeUayZyqtjSXsyflPDVPDWON8th8TUxidhwuzBvYwxkHCk_KGQ_l6rV3Xyh1Z0yEEdBBf_lq4]--></g></svg>